<svg xmlns="http://www.w3.org/2000/svg" version="1.1" height="60" width="60" fill="#9b2ef7db" viewBox="-5.0 -10.0 110.0 135.0">
 <g>
  <path d="m49.836 46.973c-2.0352-4.0938-5.4141-7.4727-9.5078-9.5078-0.77344-0.38672-1.7109-0.070313-2.0938 0.70312-0.38281 0.77344-0.070313 1.7109 0.70312 2.0938 3.4883 1.7344 6.3633 4.6094 8.0977 8.0977 0.92969 1.832 3.7031 0.44141 2.8008-1.3867z"/>
  <path d="m50.723 74.25c5.3008-4.8594 8.6523-11.816 8.6523-19.559-1.457-35.238-51.672-35.23-53.125 0-0.30078 17.582 17.805 30.828 34.445 25.367l12.262 16.199c0.30859 0.40625 0.77344 0.62109 1.2461 0.62109 0.32422 0 0.64844-0.10156 0.92969-0.30859l6.7344-5c0.6875-0.49219 0.83594-1.5352 0.3125-2.1992 0.003906 0-11.457-15.121-11.457-15.121zm-41.348-19.559c0-12.922 10.516-23.438 23.438-23.438 31.094 1.2891 31.082 45.594 0 46.875-12.922 0-23.438-10.516-23.438-23.438zm45.141 38.449-10.789-14.258c1.6211-0.73437 3.1484-1.625 4.5781-2.6562l10.438 13.777z"/>
  <path d="m93.508 25.73c-0.28516-0.45312-0.78516-0.72656-1.3203-0.72656h-5.0625l-4.8711-17.574c-0.92969-3.7656-5.8047-5.5547-8.9727-3.3242l-5.6094 3.6875c-1.2461 0.81641-2.8555 0.81641-4.0977 0l-5.6094-3.6875c-3.168-2.2305-8.0469-0.44141-8.9727 3.3242l-5.0625 18.266c-0.26953 0.91406 0.42187 1.9648 1.3945 1.9453 0.28516 0.29688 0.67969 0.48828 1.125 0.48828h43.27l-2.9492 6.25c-1.7188 0.003906-26.457-0.003906-28.961 0-2.0469 0.03125-2.0586 3.0898 0 3.125h23.438v3.125c0.054687 9.1484-8.0547 16.512-17.156 15.543-2.0312-0.19531-2.3906 2.8438-0.34375 3.1055 10.93 1.1875 20.691-7.6562 20.625-18.645v-3.125h3.3906c0.60547 0 1.1562-0.34766 1.4141-0.89453l4.4219-9.375c0.23047-0.48828 0.19531-1.0547-0.089844-1.5078zm-41.504-17.465c0.44141-1.7695 2.7578-2.5977 4.2461-1.5508l5.6133 3.6875c2.2852 1.4961 5.2383 1.5 7.5273 0l5.6094-3.6875c0.76172-0.5 1.6875-0.60156 2.5469-0.28125 0.84375 0.31641 1.4609 0.98438 1.6953 1.832l4.6367 16.738h-36.512z"/>
 </g>
</svg>