<svg xmlns="http://www.w3.org/2000/svg" xmlns:xlink="http://www.w3.org/1999/xlink" version="1.1" width="40" height="40" fill="#9b2ef7db" x="0px" y="0px" viewBox="0 0 100 125" style="enable-background:new 0 0 100 100;" xml:space="preserve"><path d="M61.215332,50.0083008c0-6.2944336-5.1293945-11.4150391-11.4345703-11.4150391  s-11.4345703,5.1206055-11.4345703,11.4150391s5.1293945,11.4150391,11.4345703,11.4150391  S61.215332,56.3027344,61.215332,50.0083008z M49.7807617,59.4233398c-5.2021484,0-9.4345703-4.2236328-9.4345703-9.4150391  s4.2324219-9.4150391,9.4345703-9.4150391s9.4345703,4.2236328,9.4345703,9.4150391S54.9829102,59.4233398,49.7807617,59.4233398z"/><path d="M16.4414062,54.703125c5.5426636,5.5960083,16.2038574,14.581665,28.8894043,16.3999023  c1.4368896,0.3027344,2.9241333,0.4672852,4.4499512,0.4672852c1.3579712,0,2.6821289-0.1408691,3.9710693-0.382019  c12.9547119-1.6099854,23.8712158-10.7990723,29.50354-16.4851685c2.5644531-2.5888672,2.5644531-6.8007812,0-9.3896484  c-6.1899414-6.2490234-18.7612305-16.7324219-33.4072266-16.7324219c-0.015686,0-0.031189,0.0010376-0.046875,0.0010376  c-0.006897,0-0.0136108-0.0010376-0.0205078-0.0010376c-0.0177002,0-0.03479,0.0025635-0.0524902,0.0026245  c-14.595459,0.0571899-27.1143799,10.4979248-33.2868652,16.7297974  C13.8764648,47.9023438,13.8764648,52.1142578,16.4414062,54.703125z M30.2480469,50.0756836  c0-10.7313843,8.7332764-19.4624023,19.4788818-19.4918823c0.0249023-0.0001221,0.0496216-0.0016479,0.0745239-0.001709  c10.7608032,0.0113525,19.5120239,8.7510376,19.5120239,19.4935913c0,9.4620972-6.7915039,17.3638916-15.7633057,19.1226196  c-1.2174683,0.152771-2.4520264,0.2372437-3.7020264,0.2372437c-1.3955078,0-2.7715454-0.1057739-4.1259766-0.2946777  C36.8939819,67.2705688,30.2480469,59.4359131,30.2480469,50.0756836z M81.8344727,46.7207031  c1.7954102,1.8129883,1.7954102,4.762207,0,6.5751953c-3.8069458,3.8430176-10.1060791,9.3432617-17.7782593,12.8276367  c4.4400024-3.9401855,7.2572632-9.6651001,7.2572632-16.0478516c0-6.5256348-2.9385376-12.3702393-7.5523682-16.3156128  C71.5670166,37.236084,77.9788208,42.8284912,81.8344727,46.7207031z M17.8623047,46.7207031  c3.8112793-3.8480835,10.1207886-9.3569336,17.8057251-12.8405151c-4.5355835,3.9436646-7.4199829,9.7339478-7.4199829,16.1954956  c0,6.3186646,2.762146,11.991333,7.1248779,15.9276733c-7.5517578-3.489624-13.7480469-8.9085693-17.5106201-12.7074585  C16.0664062,51.4829102,16.0664062,48.5336914,17.8623047,46.7207031z"/><path d="M69.6323242,84.6992188c0.1694336,0,0.3417969-0.0429688,0.4990234-0.1337891  c0.4785156-0.2763672,0.6420898-0.8876953,0.3662109-1.3662109l-5.3334961-9.237793  c-0.2768555-0.4780273-0.8896484-0.6430664-1.3662109-0.3662109c-0.4785156,0.2763672-0.6420898,0.8876953-0.3662109,1.3662109  l5.3334961,9.237793C68.9506836,84.5200195,69.2866211,84.6992188,69.6323242,84.6992188z"/><path d="M51.1518555,89V78.3334961c0-0.5522461-0.4477539-1-1-1s-1,0.4477539-1,1V89c0,0.5522461,0.4477539,1,1,1  S51.1518555,89.5522461,51.1518555,89z"/><path d="M30.6303711,84.8510742c0.3457031,0,0.6816406-0.1791992,0.8671875-0.5l5.3334961-9.237793  c0.2758789-0.4785156,0.1123047-1.0898438-0.3662109-1.3662109c-0.4799805-0.2773438-1.090332-0.1123047-1.3662109,0.3662109  l-5.3334961,9.237793c-0.2758789,0.4785156-0.1123047,1.0898438,0.3662109,1.3662109  C30.2890625,84.8081055,30.4609375,84.8510742,30.6303711,84.8510742z"/><path d="M35.703125,26.5385742c0.1694336,0,0.3417969-0.0429688,0.4990234-0.1337891  c0.4785156-0.2763672,0.6420898-0.8876953,0.3662109-1.3662109l-5.3334961-9.237793  c-0.2768555-0.4785156-0.8881836-0.6425781-1.3662109-0.3662109c-0.4785156,0.2763672-0.6420898,0.8876953-0.3662109,1.3662109  l5.3334961,9.237793C35.0214844,26.359375,35.3574219,26.5385742,35.703125,26.5385742z"/><path d="M50.8481445,21.6665039V11c0-0.5522461-0.4477539-1-1-1s-1,0.4477539-1,1v10.6665039c0,0.5522461,0.4477539,1,1,1  S50.8481445,22.21875,50.8481445,21.6665039z"/><path d="M64.0341797,26.3867188c0.3457031,0,0.6816406-0.1791992,0.8671875-0.5l5.3334961-9.237793  c0.2758789-0.4785156,0.1123047-1.0898438-0.3662109-1.3662109c-0.4799805-0.2773438-1.0898438-0.1118164-1.3662109,0.3662109  l-5.3334961,9.237793c-0.2758789,0.4785156-0.1123047,1.0898438,0.3662109,1.3662109  C63.6928711,26.34375,63.8647461,26.3867188,64.0341797,26.3867188z"/><text x="0" y="115" fill="#000000" font-size="5px" font-weight="bold" font-family="'Helvetica Neue', Helvetica, Arial-Unicode, Arial, Sans-serif">Created by Made x Made</text><text x="0" y="120" fill="#000000" font-size="5px" font-weight="bold" font-family="'Helvetica Neue', Helvetica, Arial-Unicode, Arial, Sans-serif">from the Noun Project</text></svg>