<svg xmlns="http://www.w3.org/2000/svg" data-name="Layer 1 copy 3" fill="#9b2ef7db" width="40" height="40" viewBox="0 0 64 80" x="0px" y="0px"><title>magnifying-glass-zoom-detective-loupe</title><path d="M19.065,20.019a2.982,2.982,0,1,0,2.981-2.982A2.985,2.985,0,0,0,19.065,20.019Zm2.981-.982a.982.982,0,1,1-.981.982A.984.984,0,0,1,22.046,19.037Z"/><path d="M14,19a2.991,2.991,0,0,0,2.231-1.007,4,4,0,1,0-4.225-4.223A2.992,2.992,0,0,0,14,19Zm-.483-3.866a1,1,0,0,0,.505-.96c0-.015-.02-.158-.022-.174a2,2,0,1,1,1.979,1.994h-.012l-.142-.016a1,1,0,0,0-.96.506A.985.985,0,0,1,14,17a1,1,0,0,1-1-1A.987.987,0,0,1,13.517,15.134Z"/><circle cx="16.5" cy="21.5" r="1.5"/><path d="M19,40a20.874,20.874,0,0,0,8.416-1.773l0,.01c.325-.142.633-.312.948-.47.236-.118.479-.225.71-.352.481-.263.944-.553,1.4-.851.09-.059.185-.109.274-.169.243-.165.472-.347.708-.521L32.586,37l-.293.293a1,1,0,0,0,0,1.414L54.257,60.672a4.535,4.535,0,1,0,6.414-6.414L38.707,32.293a1,1,0,0,0-1.414,0L37,32.586,35.874,31.46c.173-.234.353-.461.516-.7.072-.107.133-.221.2-.329.285-.439.564-.882.817-1.343.13-.238.241-.488.363-.731.152-.306.317-.6.456-.918l-.011-.005A20.948,20.948,0,0,0,30.692,1.563L29.576,3.224a18.922,18.922,0,0,1,6.417,24.224c-.112.226-.216.458-.337.679-.221.4-.464.789-.713,1.172-.073.113-.137.232-.212.342a19.137,19.137,0,0,1-5.1,5.1c-.078.053-.162.1-.241.149-.416.273-.839.536-1.277.777-.2.107-.4.2-.6.3A18.929,18.929,0,0,1,3.2,29.542L1.538,30.655A20.989,20.989,0,0,0,19,40ZM60,57.465a2.536,2.536,0,0,1-4.329,1.793L53.414,57,57,53.414l2.257,2.258A2.516,2.516,0,0,1,60,57.465ZM55.586,52,52,55.586,34.414,38l.293-.293,3-3L38,34.414Zm-20-18L34,35.586l-.982-.982A20.818,20.818,0,0,0,34.6,33.018Z"/><path d="M19,36A17,17,0,1,0,2,19,17.019,17.019,0,0,0,19,36ZM19,4A15,15,0,1,1,4,19,15.017,15.017,0,0,1,19,4Z"/><path d="M19,32a12.912,12.912,0,0,0,9.188-3.812l-1.414-1.414A10.926,10.926,0,0,1,19,30Z"/><path d="M12.861,30.457a12.884,12.884,0,0,0,2.889,1.131l.5-1.936a10.9,10.9,0,0,1-2.441-.957Z"/></svg>