<svg xmlns="http://www.w3.org/2000/svg" xmlns:xlink="http://www.w3.org/1999/xlink" version="1.1" width="40" height="40" fill="#9b2ef7db" x="0px" y="0px" viewBox="0 0 128 160" style="enable-background:new 0 0 128 128;" xml:space="preserve"><g><path d="M54.75,60.58l-1.5-1.322C51.155,61.636,48.148,63,45,63s-6.155-1.364-8.25-3.742l-1.5,1.322C37.724,63.389,41.277,65,45,65   S52.276,63.389,54.75,60.58z"/><rect x="22.353" y="19.016" transform="matrix(0.2026 -0.9793 0.9793 0.2026 -0.9765 38.834)" width="2.009" height="2"/><path d="M26.073,11.825C26.651,9.029,29.144,7,31.999,7V5c-3.799,0-7.115,2.7-7.885,6.42l-1.158,5.6l1.959,0.405L26.073,11.825z"/><path d="M79.476,81.598l-10.478-2.907c-2.672-4.046-6.465-7.306-10.997-9.335v-0.923c3.873-3.065,6.641-7.445,7.61-12.464   C70.288,55.653,74,51.756,74,47v-1.343c7.034-1.33,15-3.707,15-7.657c0-3.013-4.505-5.483-13.39-7.343   c-0.563-0.118-1.142-0.231-1.731-0.342l-4.077-19.706C68.65,5.042,63.688,1,58.001,1c-2.813,0-5.554,0.992-7.716,2.793l-0.62,0.518   C48.357,5.4,46.701,6,45,6s-3.357-0.6-4.664-1.688l-0.621-0.518C37.553,1.992,34.812,1,31.999,1   c-5.687,0-10.649,4.042-11.802,9.609L16.12,30.315c-0.588,0.111-1.167,0.224-1.731,0.342C5.505,32.517,1,34.987,1,38   c0,3.95,7.966,6.327,15,7.657V47c0,4.727,3.665,8.606,8.302,8.965c0.867,5.191,3.692,9.716,7.698,12.797v0.594   c-4.533,2.029-8.326,5.288-10.997,9.335l-10.478,2.907C4.917,83.153,1,88.305,1,94.124V127h88V94.124   C89,88.305,85.083,83.153,79.476,81.598z M76.575,82.868l-3.359,8.396C71.746,94.943,71,98.817,71,102.777V125H54.766   l11.315-18.857l-3.842-13.444l10.937-2.982l-0.475-2.214c-0.478-2.229-1.25-4.353-2.265-6.337L76.575,82.868z M70.746,87.921   l0.078,0.363l-11.063,3.018l4.158,14.556L52.434,125h-4.146l11.611-45.475C59.966,79.257,60,78.984,60,78.711   c0-1.342-0.79-2.519-2-3.034v-4.123C64.499,74.764,69.215,80.78,70.746,87.921z M32.833,77.511l10.512,7.533l-8.113,6.49   l-3.191-12.499C32.014,78.928,32,78.819,32,78.711C32,78.168,32.335,77.705,32.833,77.511z M45,86.28l5.789,4.632L47.52,95h-5.04   l-3.27-4.088L45,86.28z M57.167,77.511c0.498,0.193,0.833,0.657,0.833,1.2c0,0.108-0.014,0.217-0.04,0.321l-3.192,12.502   l-8.113-6.49L57.167,77.511z M51.855,102.944l-2.71-6.775l3.207-4.008l1.874,1.499L51.855,102.944z M37.649,92.162l3.207,4.008   l-2.71,6.774l-2.37-9.283L37.649,92.162z M42.677,97h4.646l3.692,9.232L46.223,125h-2.447l-4.792-18.769L42.677,97z M56,75.886   L45,83.77l-11-7.884v-5.768C37.05,71.936,40.599,73,44.4,73h0.502c4.074,0,7.869-1.175,11.098-3.174V75.886z M55,39   c-3.859,0-7,3.14-7,7v6c0,1.654-1.346,3-3,3s-3-1.346-3-3v-6c0-3.86-3.141-7-7-7c-2.785,0-5.188,1.639-6.315,4H26v-6.927   C30.634,35.456,37.102,35,45,35s14.366,0.456,19,1.073V43h-2.685C60.188,40.639,57.785,39,55,39z M60,46c0,2.757-2.243,5-5,5   s-5-2.243-5-5s2.243-5,5-5S60,43.243,60,46z M40,46c0,2.757-2.243,5-5,5s-5-2.243-5-5s2.243-5,5-5S40,43.243,40,46z M24,38.059   c-2.417,0.269-4.547,1.498-6,3.297v-3.237c0.471-0.547,2.564-1.189,6-1.748V38.059z M72,41.356c-1.453-1.799-3.583-3.028-6-3.297   V36.37c3.436,0.559,5.529,1.201,6,1.748V41.356z M65.901,53.935C65.96,53.297,66,52.653,66,52V40.08c3.386,0.488,6,3.401,6,6.92   C72,50.554,69.336,53.491,65.901,53.935z M22.156,11.015C23.117,6.371,27.256,3,31.999,3c2.347,0,4.632,0.827,6.435,2.33   l0.622,0.518C40.721,7.236,42.832,8,45,8s4.279-0.764,5.945-2.152l0.621-0.518C53.369,3.827,55.654,3,58.001,3   c4.743,0,8.882,3.371,9.843,8.015l2.622,12.674C62.907,22.587,54.15,22,45,22s-17.907,0.587-25.466,1.689L22.156,11.015z    M19.103,25.772C26.727,24.615,35.654,24,45,24s18.273,0.615,25.897,1.772l0.863,4.171C64.153,28.685,54.826,28,45,28   s-19.153,0.685-26.76,1.943L19.103,25.772z M3,38c0-3.34,15.979-8,42-8s42,4.66,42,8c0,1.178-2.794,3.639-13,5.617V38   c0-1.248-1.076-2.678-9.06-3.818C59.606,33.419,52.524,33,45,33s-14.606,0.419-19.94,1.182C17.076,35.322,16,36.752,16,38v5.617   C5.794,41.639,3,39.178,3,38z M18,47c0-3.519,2.614-6.432,6-6.92V52.6c0,0.449,0.039,0.889,0.067,1.331   C20.648,53.472,18,50.543,18,47z M26,52.6V45h2.08C28.033,45.328,28,45.66,28,46c0,3.86,3.141,7,7,7c1.958,0,3.728-0.81,5-2.111V52   c0,2.757,2.243,5,5,5s5-2.243,5-5v-1.111C51.272,52.19,53.042,53,55,53c3.859,0,7-3.14,7-7c0-0.34-0.033-0.672-0.08-1H64v7   c0,10.477-8.567,19-19.098,19H44.4C34.254,71,26,62.746,26,52.6z M32,71.555v4.123c-1.21,0.515-2,1.691-2,3.034   c0,0.273,0.034,0.546,0.103,0.816L41.713,125h-4.146l-11.485-19.143l4.158-14.556l-11.063-3.018l0.078-0.363   C20.785,80.78,25.501,74.764,32,71.555z M17.299,87.502l-0.475,2.214l10.937,2.982l-3.842,13.444L35.234,125H19v-22.223   c0-3.96-0.746-7.834-2.217-11.513l-3.359-8.396l6.139-1.703C18.549,83.149,17.777,85.273,17.299,87.502z M3,94.124   c0-4.924,3.314-9.283,8.06-10.6l0.426-0.118l3.441,8.601C16.302,95.449,17,99.072,17,102.777V125H3V94.124z M87,125H73v-22.223   c0-3.705,0.698-7.329,2.074-10.77l3.441-8.601l0.426,0.118C83.686,84.841,87,89.2,87,94.124V125z"/><path d="M127,62c0-13.785-11.215-25-25-25S77,48.215,77,62c0,12.073,8.603,22.174,20,24.497v5.687c-1.161,0.414-2,1.514-2,2.816v25   c0,3.86,3.141,7,7,7s7-3.14,7-7V95c0-1.302-0.839-2.402-2-2.816v-5.687C118.397,84.174,127,74.073,127,62z M79,62   c0-12.682,10.317-23,23-23s23,10.318,23,23s-10.317,23-23,23S79,74.682,79,62z M107,120c0,2.757-2.243,5-5,5s-5-2.243-5-5V95   c0-0.551,0.448-1,1-1h8c0.552,0,1,0.449,1,1V120z M105,92h-6v-5.186c0.984,0.118,1.984,0.186,3,0.186s2.016-0.068,3-0.186V92z"/><path d="M121,62c0-10.477-8.523-19-19-19s-19,8.523-19,19s8.523,19,19,19S121,72.477,121,62z M85,62c0-9.374,7.626-17,17-17   s17,7.626,17,17s-7.626,17-17,17S85,71.374,85,62z"/><path d="M87,62h2c0-5.71,3.818-10.835,9.285-12.462l-0.57-1.917C91.406,49.499,87,55.412,87,62z"/><path d="M102,47c-0.716,0-1.437,0.051-2.142,0.152l0.283,1.979C100.753,49.044,101.378,49,102,49V47z"/><rect x="101" y="96" width="2" height="2"/><rect x="101" y="100" width="2" height="2"/><rect x="101" y="104" width="2" height="2"/></g></svg>