<svg xmlns="http://www.w3.org/2000/svg" xmlns:xlink="http://www.w3.org/1999/xlink" version="1.1" width="40" height="40" fill="#9b2ef7db" x="0px" y="0px" viewBox="0 0 100 125" style="enable-background:new 0 0 100 100;" xml:space="preserve"><path d="M10.9990234,88c-0.5522461,0-1,0.4477539-1,1s0.4477539,1,1,1h78c0.5522461,0,1-0.4477539,1-1s-0.4477539-1-1-1h-9.4741211  V73.7856445h4.9887695c3.0244141,0,5.4853516-2.4609375,5.4853516-5.4853516V22.8417969  c0-3.0244141-2.4609375-5.4853516-5.4853516-5.4853516h-4.9887695V14.730957c0-2.6088867-2.0366211-4.730957-4.5400391-4.730957  h-0.5883789c-2.503418,0-4.5400391,2.1220703-4.5400391,4.730957v2.6254883H30.1420898V14.730957  c0-2.6088867-2.0371094-4.730957-4.5405273-4.730957h-0.5883789c-2.503418,0-4.5400391,2.1220703-4.5400391,4.730957v2.6254883  H15.484375c-3.0244141,0-5.4853516,2.4609375-5.4853516,5.4853516V68.300293c0,3.0244141,2.4609375,5.4853516,5.4853516,5.4853516  h4.9887695V88H10.9990234z M69.8564453,73.7856445V88H30.1420898V73.7856445H69.8564453z M77.5249023,88h-5.668457V73.7856445  h5.668457V88z M71.8564453,14.730957c0-1.5058594,1.1396484-2.730957,2.5400391-2.730957h0.5883789  c1.4003906,0,2.5400391,1.2250977,2.5400391,2.730957v2.6254883h-5.668457V14.730957z M22.4731445,14.730957  C22.4731445,13.2250977,23.612793,12,25.0131836,12h0.5883789c1.4008789,0,2.5405273,1.2250977,2.5405273,2.730957v2.6254883  h-5.6689453V14.730957z M11.9990234,68.300293V22.8417969c0-1.921875,1.5634766-3.4853516,3.4853516-3.4853516h69.0292969  c1.921875,0,3.4853516,1.5634766,3.4853516,3.4853516V68.300293c0,1.921875-1.5634766,3.4853516-3.4853516,3.4853516H15.484375  C13.5625,71.7856445,11.9990234,70.222168,11.9990234,68.300293z M22.4731445,73.7856445h5.6689453V88h-5.6689453V73.7856445z"/><path d="M71.9042969,27.3945312l-11.5942383,0.6899414c-1.8608398,0.1108398-3.3183594,1.6577148-3.3183594,3.5219727v7.175293  c0,1.8637695,1.4575195,3.4106445,3.3183594,3.5214844l11.5942383,0.6904297  c0.1606445,0.0097656,0.3203125,0.0146484,0.4794922,0.0146484c1.9951172,0,3.8774414-0.7460938,5.34375-2.1279297  c1.5830078-1.4916992,2.4550781-3.5112305,2.4550781-5.6865234s-0.8720703-4.1953125-2.4555664-5.6870117  C76.144043,28.0146484,74.074707,27.2617188,71.9042969,27.3945312z M76.355957,39.4248047  c-1.1782227,1.1098633-2.7158203,1.6655273-4.3325195,1.5727539l-11.5942383-0.6904297  c-0.8061523-0.0483398-1.4375-0.7182617-1.4375-1.5253906v-7.175293c0-0.8076172,0.6313477-1.4775391,1.4375-1.5258789  l11.5942383-0.6899414c0.1196289-0.0068359,0.2387695-0.0102539,0.3574219-0.0102539  c1.4838867,0,2.8842773,0.5546875,3.9750977,1.5820312c1.1777344,1.1103516,1.8266602,2.612793,1.8266602,4.2314453  S77.5336914,38.3149414,76.355957,39.4248047z"/><path d="M46.6035156,42.1201172h4.355957c0.5522461,0,1-0.4477539,1-1V29.2680664c0-0.5522461-0.4477539-1-1-1h-4.355957  c-3.8188477,0-6.9257812,3.1069336-6.9257812,6.9257812C39.6777344,39.0131836,42.784668,42.1201172,46.6035156,42.1201172z   M46.6035156,30.2680664h3.355957v9.8520508h-3.355957c-2.7163086,0-4.9257812-2.2099609-4.9257812-4.9262695  S43.887207,30.2680664,46.6035156,30.2680664z"/><path d="M53.9663086,48.1484375l-11.59375,0.6904297c-1.8608398,0.1098633-3.3188477,1.6567383-3.3188477,3.5214844v7.175293  c0,1.8647461,1.4580078,3.4116211,3.3183594,3.5214844l11.5942383,0.6904297  c0.1606445,0.0097656,0.3208008,0.0146484,0.4804688,0.0146484c1.9941406,0,3.8759766-0.7456055,5.3422852-2.1269531  c1.5834961-1.4921875,2.4555664-3.5117188,2.4555664-5.6875c0-2.175293-0.8720703-4.1948242-2.4555664-5.6870117  C58.2050781,48.769043,56.1352539,48.0141602,53.9663086,48.1484375z M58.4174805,60.1796875  c-1.1777344,1.1098633-2.7133789,1.6665039-4.3320312,1.5717773l-11.5947266-0.6904297  c-0.8056641-0.0478516-1.4370117-0.7177734-1.4370117-1.5253906v-7.175293c0-0.8076172,0.6313477-1.4775391,1.4375-1.5253906  l11.5942383-0.6904297c0.1196289-0.0068359,0.2387695-0.0102539,0.3574219-0.0102539  c1.4838867,0,2.8837891,0.5546875,3.9746094,1.5825195c1.1782227,1.1098633,1.8271484,2.6123047,1.8271484,4.230957  S59.5957031,59.0693359,58.4174805,60.1796875z"/><path d="M33.0214844,49.0219727h-4.355957c-3.8188477,0-6.9257812,3.1069336-6.9257812,6.9257812  c0,3.8193359,3.1069336,6.9262695,6.9257812,6.9262695h4.355957c0.5522461,0,1-0.4477539,1-1V50.0219727  C34.0214844,49.4697266,33.5737305,49.0219727,33.0214844,49.0219727z M32.0214844,60.8740234h-3.355957  c-2.7163086,0-4.9257812-2.2099609-4.9257812-4.9262695s2.2094727-4.9257812,4.9257812-4.9257812h3.355957V60.8740234z"/><text x="0" y="115" fill="#000000" font-size="5px" font-weight="bold" font-family="'Helvetica Neue', Helvetica, Arial-Unicode, Arial, Sans-serif">Created by Made x Made</text><text x="0" y="120" fill="#000000" font-size="5px" font-weight="bold" font-family="'Helvetica Neue', Helvetica, Arial-Unicode, Arial, Sans-serif">from the Noun Project</text></svg>