<svg xmlns="http://www.w3.org/2000/svg" xmlns:xlink="http://www.w3.org/1999/xlink" width="50" height="50" version="1.1" fill="#9b2ef7db" x="0px" y="0px" viewBox="0 0 320 580" style="enable-background:new 0 0 320 464;" xml:space="preserve"><g><path d="M43.451,164.657c2.896,11.82,7.563,23.087,13.874,33.488l2.291,3.776l-8.676,17.351l25.787,25.787l17.351-8.676   l3.777,2.291c10.4,6.311,21.667,10.978,33.488,13.873l4.29,1.051L141.766,272h36.468l6.134-18.401l4.29-1.051   c11.821-2.896,23.088-7.563,33.488-13.873l3.777-2.291l17.352,8.676l25.787-25.787l-8.676-17.351l2.291-3.776   c6.31-10.401,10.978-21.668,13.874-33.488l1.051-4.29l18.4-6.133v-36.469l-18.4-6.133l-1.051-4.29   c-2.896-11.82-7.563-23.087-13.874-33.488l-2.291-3.776l8.676-17.351l-25.737-25.738L232,32.814v28.151   c20.377,19.568,32,46.706,32,75.035c0,57.346-46.654,104-104,104S56,193.346,56,136c0-28.33,11.623-55.468,32-75.036V32.353   l-11.226-5.459L50.94,52.728l8.676,17.351l-2.291,3.776c-6.31,10.401-10.978,21.668-13.874,33.488l-1.051,4.29L24,117.766v36.469   l18.4,6.133L43.451,164.657z"/><path d="M187.314,288l16.304,16.304l10.712-43.611c-5.693,2.482-11.55,4.583-17.548,6.263L189.766,288H187.314z"/><path d="M216,203.833V0H104v203.833C119.226,216.425,138.745,224,160,224S200.774,216.425,216,203.833z M120,16h80v16h-80V16z    M120,48h80v16h-80V48z M122.343,197.657c-2.435-2.436-3.039-6.155-1.499-9.235l13.421-26.842l-19.923-19.923   c-2.288-2.288-2.973-5.729-1.734-8.719S116.764,128,120,128h19.056l13.789-27.578C154.2,97.712,156.97,96,160,96   s5.8,1.712,7.155,4.422L180.944,128H200c3.236,0,6.153,1.949,7.391,4.938s0.554,6.431-1.734,8.719l-19.923,19.923l13.421,26.842   c1.54,3.08,0.937,6.8-1.499,9.235c-1.536,1.536-3.583,2.343-5.659,2.343c-1.214,0-2.438-0.276-3.576-0.845L160,184.942   l-28.422,14.213C128.498,200.694,124.778,200.092,122.343,197.657z"/><path d="M163.578,168.843l10.532,5.267l-5.266-10.531c-1.54-3.08-0.937-6.8,1.499-9.235L180.687,144H176   c-3.03,0-5.8-1.712-7.155-4.422L160,121.889l-8.845,17.689C149.8,142.288,147.03,144,144,144h-4.687l10.343,10.343   c2.435,2.436,3.039,6.155,1.499,9.235l-5.266,10.531l10.532-5.267c1.126-0.563,2.352-0.845,3.578-0.845   S162.452,168.279,163.578,168.843z"/><polygon points="161.533,328 158.467,328 140.413,412.251 167.917,415.918 179.975,414.063  "/><path d="M192,432h-16v32h32v-16C208,439.178,200.822,432,192,432z"/><polygon points="146.294,297.02 156.281,312 163.719,312 173.706,297.02 164.686,288 155.314,288  "/><path d="M319.61,413.602l-11.517-86.374c-2.237-16.776-11.793-31.476-26.219-40.329l-40.906-25.103l-9.293-4.647l-19.293,78.547   l-27.139-27.139l-8.713,13.07l19.286,89.999l66.521-10.234l-14.146-63.657l15.619-3.471l17.854,80.343l-67.463,10.379   C220.235,430.81,224,438.971,224,448v16h51.486C300.031,464,320,444.031,320,419.485C320,417.524,319.869,415.545,319.61,413.602z"/><path d="M56.19,334.265l15.619,3.471l-14.108,63.487l66.804,8.907l18.965-88.503l-8.713-13.07l-27.139,27.139l-19.293-78.547   l-9.292,4.646l-40.907,25.103c-14.426,8.854-23.982,23.553-26.219,40.329L0.39,413.603C0.131,415.545,0,417.524,0,419.485   C0,444.031,19.969,464,44.514,464H160v-32.996L38.299,414.777L56.19,334.265z"/><path d="M123.219,266.956c-5.998-1.68-11.855-3.781-17.548-6.263l10.712,43.611L132.686,288h-2.452L123.219,266.956z"/></g></svg>