<svg xmlns="http://www.w3.org/2000/svg" data-name="Layer 1" width="80" height="80" fill="#fff" viewBox="0 0 100 125" x="0px" y="0px"><title>96all</title><path d="M4.32,79.64v9a1.5,1.5,0,0,0,1.5,1.5H94.18a1.5,1.5,0,0,0,1.5-1.5v-9A16.24,16.24,0,0,0,84.58,64.27a12.47,12.47,0,0,0-5.13-23.83c-.32,0-.63,0-.95,0a16.12,16.12,0,0,0-8.61-6.82,12.48,12.48,0,1,0-10.33,0A16.11,16.11,0,0,0,51,40.49c-.31,0-.63,0-1,0s-.62,0-.93,0l-.34-.5a16.22,16.22,0,0,0-8.31-6.31,12.48,12.48,0,1,0-10.3,0,16.14,16.14,0,0,0-8.62,6.82c-.31,0-.63,0-.95,0a12.47,12.47,0,0,0-5.13,23.83A16.24,16.24,0,0,0,4.32,79.64Zm32.45,0a13.23,13.23,0,0,1,26.45,0v7.51H36.77V79.64Zm55.9,0v7.51H66.23V79.64a13.23,13.23,0,0,1,26.45,0ZM88.93,52.91a9.48,9.48,0,1,1-9.48-9.47A9.49,9.49,0,0,1,88.93,52.91ZM55.25,22.32a9.48,9.48,0,1,1,9.48,9.48A9.49,9.49,0,0,1,55.25,22.32Zm9.48,13.51a13.11,13.11,0,0,1,10.58,5.33,12.45,12.45,0,0,0-1,23.11,16.28,16.28,0,0,0-9.59,8.61,16.28,16.28,0,0,0-9.59-8.6,12.45,12.45,0,0,0-1-23.11A13.11,13.11,0,0,1,64.73,35.83ZM59.48,52.91A9.48,9.48,0,1,1,50,43.44,9.49,9.49,0,0,1,59.48,52.91ZM25.8,22.32a9.48,9.48,0,1,1,9.48,9.48A9.49,9.49,0,0,1,25.8,22.32Zm9.48,13.51a13.2,13.2,0,0,1,10.58,5.33,12.46,12.46,0,0,0-1,23.11,16.28,16.28,0,0,0-9.59,8.61,16.28,16.28,0,0,0-9.59-8.6,12.46,12.46,0,0,0-1-23.11A13.13,13.13,0,0,1,35.28,35.83ZM11.07,52.91a9.48,9.48,0,1,1,9.48,9.48A9.49,9.49,0,0,1,11.07,52.91Zm9.48,13.51A13.24,13.24,0,0,1,33.77,79.64v7.51H7.32V79.64A13.24,13.24,0,0,1,20.55,66.42Z"/></svg>