<svg xmlns="http://www.w3.org/2000/svg" xmlns:xlink="http://www.w3.org/1999/xlink" width="70px" height="90px" version="1.1" x="0px" y="0px" viewBox="0 0 100 125" style="enable-background:new 0 0 100 100;" xml:space="preserve"><path d="M46.3808594,47.0966797c0.5527344,0,1-0.4472656,1-1v-3.8964844c0-0.5527344-0.4472656-1-1-1s-1,0.4472656-1,1v3.8964844  C45.3808594,46.6494141,45.828125,47.0966797,46.3808594,47.0966797z"/><path d="M54.5410156,47.0966797c0.5527344,0,1-0.4472656,1-1v-3.8964844c0-0.5527344-0.4472656-1-1-1s-1,0.4472656-1,1v3.8964844  C53.5410156,46.6494141,53.9882812,47.0966797,54.5410156,47.0966797z"/><path d="M46.3808594,38.4238281c0.5527344,0,1-0.4472656,1-1v-3.8974609c0-0.5527344-0.4472656-1-1-1s-1,0.4472656-1,1v3.8974609  C45.3808594,37.9765625,45.828125,38.4238281,46.3808594,38.4238281z"/><path d="M54.5410156,38.4238281c0.5527344,0,1-0.4472656,1-1v-3.8974609c0-0.5527344-0.4472656-1-1-1s-1,0.4472656-1,1v3.8974609  C53.5410156,37.9765625,53.9882812,38.4238281,54.5410156,38.4238281z"/><path d="M46.3808594,29.75c0.5527344,0,1-0.4472656,1-1v-3.8964844c0-0.5527344-0.4472656-1-1-1s-1,0.4472656-1,1V28.75  C45.3808594,29.3027344,45.828125,29.75,46.3808594,29.75z"/><path d="M54.5410156,29.75c0.5527344,0,1-0.4472656,1-1v-3.8964844c0-0.5527344-0.4472656-1-1-1s-1,0.4472656-1,1V28.75  C53.5410156,29.3027344,53.9882812,29.75,54.5410156,29.75z"/><path d="M46.3808594,55.7705078c0.5527344,0,1-0.4472656,1-1v-3.8964844c0-0.5527344-0.4472656-1-1-1s-1,0.4472656-1,1v3.8964844  C45.3808594,55.3232422,45.828125,55.7705078,46.3808594,55.7705078z"/><path d="M54.5410156,55.7705078c0.5527344,0,1-0.4472656,1-1v-3.8964844c0-0.5527344-0.4472656-1-1-1s-1,0.4472656-1,1v3.8964844  C53.5410156,55.3232422,53.9882812,55.7705078,54.5410156,55.7705078z"/><path d="M24.2792969,48.4189453c-0.5527344,0-1,0.4472656-1,1V52.0625c0,0.5527344,0.4472656,1,1,1s1-0.4472656,1-1v-2.6435547  C25.2792969,48.8662109,24.8320312,48.4189453,24.2792969,48.4189453z"/><path d="M30.3115234,48.4189453c-0.5527344,0-1,0.4472656-1,1V52.0625c0,0.5527344,0.4472656,1,1,1s1-0.4472656,1-1v-2.6435547  C31.3115234,48.8662109,30.8642578,48.4189453,30.3115234,48.4189453z"/><path d="M24.2792969,55.9335938c-0.5527344,0-1,0.4472656-1,1v2.6435547c0,0.5527344,0.4472656,1,1,1s1-0.4472656,1-1v-2.6435547  C25.2792969,56.3808594,24.8320312,55.9335938,24.2792969,55.9335938z"/><path d="M30.3115234,55.9335938c-0.5527344,0-1,0.4472656-1,1v2.6435547c0,0.5527344,0.4472656,1,1,1s1-0.4472656,1-1v-2.6435547  C31.3115234,56.3808594,30.8642578,55.9335938,30.3115234,55.9335938z"/><path d="M24.2792969,63.4492188c-0.5527344,0-1,0.4472656-1,1v2.6435547c0,0.5527344,0.4472656,1,1,1s1-0.4472656,1-1v-2.6435547  C25.2792969,63.8964844,24.8320312,63.4492188,24.2792969,63.4492188z"/><path d="M30.3115234,63.4492188c-0.5527344,0-1,0.4472656-1,1v2.6435547c0,0.5527344,0.4472656,1,1,1s1-0.4472656,1-1v-2.6435547  C31.3115234,63.8964844,30.8642578,63.4492188,30.3115234,63.4492188z"/><path d="M24.2792969,70.9638672c-0.5527344,0-1,0.4472656-1,1v2.6435547c0,0.5527344,0.4472656,1,1,1s1-0.4472656,1-1v-2.6435547  C25.2792969,71.4111328,24.8320312,70.9638672,24.2792969,70.9638672z"/><path d="M30.3115234,70.9638672c-0.5527344,0-1,0.4472656-1,1v2.6435547c0,0.5527344,0.4472656,1,1,1s1-0.4472656,1-1v-2.6435547  C31.3115234,71.4111328,30.8642578,70.9638672,30.3115234,70.9638672z"/><path d="M24.2792969,78.4785156c-0.5527344,0-1,0.4472656-1,1v2.6435547c0,0.5527344,0.4472656,1,1,1s1-0.4472656,1-1v-2.6435547  C25.2792969,78.9257812,24.8320312,78.4785156,24.2792969,78.4785156z"/><path d="M30.3115234,78.4785156c-0.5527344,0-1,0.4472656-1,1v2.6435547c0,0.5527344,0.4472656,1,1,1s1-0.4472656,1-1v-2.6435547  C31.3115234,78.9257812,30.8642578,78.4785156,30.3115234,78.4785156z"/><path d="M76.7460938,53.0625c0.5527344,0,1-0.4472656,1-1v-2.6435547c0-0.5527344-0.4472656-1-1-1s-1,0.4472656-1,1V52.0625  C75.7460938,52.6152344,76.1933594,53.0625,76.7460938,53.0625z"/><path d="M70.7128906,53.0625c0.5527344,0,1-0.4472656,1-1v-2.6435547c0-0.5527344-0.4472656-1-1-1s-1,0.4472656-1,1V52.0625  C69.7128906,52.6152344,70.1601562,53.0625,70.7128906,53.0625z"/><path d="M76.7460938,60.5771484c0.5527344,0,1-0.4472656,1-1v-2.6435547c0-0.5527344-0.4472656-1-1-1s-1,0.4472656-1,1v2.6435547  C75.7460938,60.1298828,76.1933594,60.5771484,76.7460938,60.5771484z"/><path d="M70.7128906,60.5771484c0.5527344,0,1-0.4472656,1-1v-2.6435547c0-0.5527344-0.4472656-1-1-1s-1,0.4472656-1,1v2.6435547  C69.7128906,60.1298828,70.1601562,60.5771484,70.7128906,60.5771484z"/><path d="M76.7460938,68.0927734c0.5527344,0,1-0.4472656,1-1v-2.6435547c0-0.5527344-0.4472656-1-1-1s-1,0.4472656-1,1v2.6435547  C75.7460938,67.6455078,76.1933594,68.0927734,76.7460938,68.0927734z"/><path d="M70.7128906,68.0927734c0.5527344,0,1-0.4472656,1-1v-2.6435547c0-0.5527344-0.4472656-1-1-1s-1,0.4472656-1,1v2.6435547  C69.7128906,67.6455078,70.1601562,68.0927734,70.7128906,68.0927734z"/><path d="M76.7460938,75.6074219c0.5527344,0,1-0.4472656,1-1v-2.6435547c0-0.5527344-0.4472656-1-1-1s-1,0.4472656-1,1v2.6435547  C75.7460938,75.1601562,76.1933594,75.6074219,76.7460938,75.6074219z"/><path d="M70.7128906,75.6074219c0.5527344,0,1-0.4472656,1-1v-2.6435547c0-0.5527344-0.4472656-1-1-1s-1,0.4472656-1,1v2.6435547  C69.7128906,75.1601562,70.1601562,75.6074219,70.7128906,75.6074219z"/><path d="M76.7460938,83.1220703c0.5527344,0,1-0.4472656,1-1v-2.6435547c0-0.5527344-0.4472656-1-1-1s-1,0.4472656-1,1v2.6435547  C75.7460938,82.6748047,76.1933594,83.1220703,76.7460938,83.1220703z"/><path d="M70.7128906,83.1220703c0.5527344,0,1-0.4472656,1-1v-2.6435547c0-0.5527344-0.4472656-1-1-1s-1,0.4472656-1,1v2.6435547  C69.7128906,82.6748047,70.1601562,83.1220703,70.7128906,83.1220703z"/><path d="M89,88h-4.3085938V42.5c0-0.5527344-0.4472656-1-1-1H64.2988281V11c0-0.5527344-0.4472656-1-1-1  c-18.2832031,0-26.3740234,8.125-26.7089844,8.4707031c-0.1806641,0.1865234-0.2822266,0.4365234-0.2822266,0.6962891V41.5  H17.3330078c-0.5527344,0-1,0.4472656-1,1V88H11c-0.5527344,0-1,0.4472656-1,1s0.4472656,1,1,1h78c0.5527344,0,1-0.4472656,1-1  S89.5527344,88,89,88z M82.6914062,43.5V88H64.2988281V43.5H82.6914062z M54.8574219,88H45.75v-7.8505859h9.1074219V88z   M55.8574219,78.1494141H44.75c-0.5527344,0-1,0.4472656-1,1V88h-5.4423828V71.6914062h23.9912109V88h-5.4414062v-8.8505859  C56.8574219,78.5966797,56.4101562,78.1494141,55.8574219,78.1494141z M62.2988281,69.6914062H38.3076172v-7.8017578h23.9912109  V69.6914062z M62.2988281,12.0087891v47.8808594H38.3076172V19.6025391  C39.8203125,18.2636719,47.4160156,12.2685547,62.2988281,12.0087891z M18.3330078,43.5h17.9746094V88H18.3330078V43.5z"/></svg>