<svg xmlns="http://www.w3.org/2000/svg" data-name="Layer 1" height="80" weight="80" viewBox="0 0 110 137.5" x="0px" y="0px" fill="#fff"><path d="M97,103.86H13a7,7,0,0,1-7-7V31.73a7,7,0,0,1,7-7H97a7,7,0,0,1,7,7V96.86A7,7,0,0,1,97,103.86ZM13,26.73a5,5,0,0,0-5,5V96.86a5,5,0,0,0,5,5H97a5,5,0,0,0,5-5V31.73a5,5,0,0,0-5-5Z"/><path d="M97,103.86H13a7,7,0,0,1-7-7V87.2a1,1,0,0,1,1-1h96a1,1,0,0,1,1,1v9.66A7,7,0,0,1,97,103.86ZM8,88.2v8.66a5,5,0,0,0,5,5H97a5,5,0,0,0,5-5V88.2Z"/><path d="M20.79,40.51a1,1,0,0,1-.71-.29L14.88,35a1,1,0,1,1,1.42-1.42l5.19,5.2a1,1,0,0,1,0,1.41A1,1,0,0,1,20.79,40.51Z"/><path d="M15.59,40.51a1,1,0,0,1-.71-.29,1,1,0,0,1,0-1.41l5.2-5.2a1,1,0,0,1,1.41,0,1,1,0,0,1,0,1.42L16.3,40.22A1,1,0,0,1,15.59,40.51Z"/><path d="M13.74,98.36a1,1,0,0,1-1-1V92.7a1,1,0,0,1,2,0v4.66A1,1,0,0,1,13.74,98.36Z"/><path d="M17.74,98.36a1,1,0,0,1-1-1V92.7a1,1,0,0,1,2,0v4.66A1,1,0,0,1,17.74,98.36Z"/><path d="M96.66,96H92a1,1,0,1,1,0-2h4.67a1,1,0,0,1,0,2Z"/><path d="M86.33,96H23.67a1,1,0,0,1,0-2H86.33a1,1,0,1,1,0,2Z"/><path d="M31.24,97.86a1,1,0,0,1-1-1V93.19a1,1,0,0,1,2,0v3.67A1,1,0,0,1,31.24,97.86Z"/><path d="M55,75.67A18.67,18.67,0,1,1,73.67,57,18.69,18.69,0,0,1,55,75.67Zm0-35.33A16.67,16.67,0,1,0,71.67,57,16.69,16.69,0,0,0,55,40.34Z"/><path d="M53.06,65.08a2.58,2.58,0,0,1-2.56-2.56v-11a2.57,2.57,0,0,1,4-2.08l7.78,5.52A2.58,2.58,0,0,1,63.4,57a2.52,2.52,0,0,1-1.08,2.08L54.54,64.6A2.51,2.51,0,0,1,53.06,65.08Zm0-14.15a.71.71,0,0,0-.26.06.55.55,0,0,0-.3.49v11a.52.52,0,0,0,.3.49.53.53,0,0,0,.58,0l7.78-5.52h0a.55.55,0,0,0,0-.89L53.38,51A.6.6,0,0,0,53.06,50.93Z"/><path d="M73.86,26.73H36.06a1,1,0,0,1-.72-.3,1,1,0,0,1-.28-.73l.09-3.52a1,1,0,0,1,.84-1l3-.47A18.46,18.46,0,0,1,39.7,19c.17-.37.35-.71.52-1l-1.66-2.51a1,1,0,0,1,.14-1.28l5.08-4.85a1,1,0,0,1,1.28-.09L47.49,11a16.86,16.86,0,0,1,2.84-1.1l.6-3a1,1,0,0,1,1-.8l7,.13a1,1,0,0,1,1,.85l.45,3a17.08,17.08,0,0,1,2.77,1.21l2.53-1.69A1,1,0,0,1,67,9.78l4.84,5.07a1,1,0,0,1,.08,1.29l-1.8,2.43a17.49,17.49,0,0,1,1.1,2.83l3,.6a1,1,0,0,1,.8,1l-.07,2.75A1,1,0,0,1,73.86,26.73Zm-36.78-2H72.89l0-.94-2.75-.55a1,1,0,0,1-.77-.74A15,15,0,0,0,68,19a1,1,0,0,1,.07-1.08l1.67-2.26-3.68-3.85-2.34,1.57a1,1,0,0,1-1.08,0,14.48,14.48,0,0,0-3.46-1.53,1,1,0,0,1-.71-.81l-.42-2.77-5.34-.1-.56,2.76a1,1,0,0,1-.72.76l-.19.06a14.89,14.89,0,0,0-3.37,1.33A1,1,0,0,1,46.81,13l-2.26-1.66L40.69,15l1.54,2.34a1,1,0,0,1,0,1.08c-.25.41-.49.86-.74,1.38a14.68,14.68,0,0,0-.79,2.08,1,1,0,0,1-.8.71l-2.8.43Zm2.68-3.09h0Z"/><path d="M63.83,26.73H46.06a1,1,0,0,1-.72-.31,1,1,0,0,1-.27-.73,9.89,9.89,0,0,1,19.76,0,1,1,0,0,1-.27.73A1,1,0,0,1,63.83,26.73Zm-16.66-2H62.73a7.89,7.89,0,0,0-15.56,0Z"/></svg>