<svg xmlns="http://www.w3.org/2000/svg" xmlns:xlink="http://www.w3.org/1999/xlink" xmlns:xodm="http://www.corel.com/coreldraw/odm/2003" xml:space="preserve" version="1.1" style="shape-rendering:geometricPrecision;text-rendering:geometricPrecision;image-rendering:optimizeQuality;" viewBox="0 0 100 125" x="0px" y="0px" fill-rule="evenodd" clip-rule="evenodd"><defs><style type="text/css">
   
    .fil0 {fill:black;fill-rule:nonzero}
   
  </style></defs><g><path class="fil0" d="M49.762 98.338c-0.067,0.363 -0.415,0.603 -0.777,0.537 -0.363,-0.067 -0.603,-0.415 -0.537,-0.777 0.438,-2.387 0.816,-4.31 1.558,-6.157 0.75,-1.866 1.858,-3.621 3.744,-5.632 1.156,-1.233 1.958,-2.152 2.636,-3.033 0.679,-0.885 1.255,-1.757 1.954,-2.889 1.471,-2.381 2.219,-2.788 3.987,-3.751 0.055,-0.03 -0.141,0.077 0.363,-0.2 0.336,-0.184 0.666,-0.685 0.88,-1.253 0.137,-0.361 0.218,-0.735 0.216,-1.063 0,-0.247 -0.047,-0.452 -0.154,-0.567 -0.049,-0.053 -0.128,-0.091 -0.241,-0.108l-2.291 -0.347c-0.365,-0.055 -0.617,-0.396 -0.562,-0.762 0.055,-0.365 0.396,-0.617 0.761,-0.562l1.097 0.166c0.168,-0.317 0.294,-0.63 0.346,-0.947 0.055,-0.333 0.03,-0.687 -0.112,-1.085l-0.001 -0.004 -2.172 -5.157 -0.001 0c-0.267,-0.591 -0.72,-0.949 -1.263,-1.167 -0.61,-0.245 -1.343,-0.329 -2.072,-0.362l-4.897 -0.221 -0.01 0 -0.016 -0.001 -0.957 -0.043c-0.795,-0.036 -1.323,0.007 -1.715,0.214 -0.387,0.204 -0.714,0.607 -1.111,1.296 -0.219,0.378 -0.546,0.935 -0.873,1.494 -0.859,1.463 -1.719,2.93 -2.484,4.431 -0.006,0.013 -0.012,0.025 -0.018,0.037 -0.86,1.691 -1.597,3.425 -2.071,5.245 -0.082,0.316 -0.17,0.638 -0.264,0.966 -0.009,0.067 -0.027,0.133 -0.055,0.193 -0.594,2.046 -1.396,4.303 -2.33,6.636 -1.225,3.058 -2.671,6.241 -4.168,9.247 -0.434,0.87 -0.887,1.753 -1.353,2.639 -0.447,0.85 -0.904,1.693 -1.365,2.521 -0.179,0.323 -0.586,0.439 -0.908,0.259 -0.322,-0.179 -0.438,-0.585 -0.259,-0.908 0.438,-0.786 0.889,-1.62 1.349,-2.495 0.434,-0.824 0.881,-1.697 1.337,-2.613 1.491,-2.992 2.923,-6.143 4.126,-9.147 0.78,-1.947 1.464,-3.834 2.008,-5.58l-5.028 0.847c-0.09,0.021 -0.186,0.024 -0.283,0.005 -0.363,-0.073 -0.598,-0.425 -0.526,-0.788 0.813,-4.067 1.283,-6.4 2.032,-8.113 -0.446,0.175 -0.903,0.301 -1.443,0.413l-0.005 0.001 0 0.001 -16.75 3.294c-2.154,0.424 -3.772,1.349 -4.972,2.72 -1.219,1.394 -2.03,3.263 -2.549,5.545l-3.049 16.599c-0.067,0.363 -0.415,0.603 -0.778,0.536 -0.362,-0.066 -0.602,-0.414 -0.536,-0.777l3.05 -16.605c0.002,-0.012 0.005,-0.024 0.007,-0.036 0.568,-2.5 1.473,-4.567 2.85,-6.141 1.398,-1.597 3.26,-2.671 5.721,-3.155l16.75 -3.293 0 0.001c0.635,-0.131 1.129,-0.284 1.642,-0.536 0.505,-0.249 1.042,-0.599 1.751,-1.12 0.98,-1.052 2.338,-2.116 4.355,-3.696 0.557,-0.437 1.171,-0.919 1.998,-1.577 0.368,-2.072 0.648,-4.09 0.658,-5.942 0.005,-0.861 0.409,-1.648 0.966,-2.135 0.279,-0.244 0.601,-0.42 0.938,-0.502 0.37,-0.089 0.753,-0.068 1.118,0.091 0.511,0.223 0.963,0.706 1.246,1.528 0.173,0.506 0.257,1.228 0.275,2.074 0.02,0.927 -0.038,2.02 -0.138,3.137 -0.061,0.693 0.022,1.157 0.281,1.426 0.276,0.286 0.802,0.432 1.609,0.472l0.008 0.001 4.894 0.22c0.856,0.039 1.733,0.144 2.511,0.457 0.845,0.339 1.557,0.907 1.985,1.858l-0.001 0.001 0.007 0.015 2.177 5.171c0.013,0.025 0.024,0.051 0.033,0.078 0.223,0.625 0.26,1.197 0.17,1.745 -0.054,0.33 -0.155,0.644 -0.288,0.949 0.346,0.085 0.622,0.254 0.838,0.486 0.191,0.205 0.323,0.451 0.405,0.724 1.637,-1.158 2.851,-2.172 3.653,-3.187 0.836,-1.058 1.224,-2.133 1.186,-3.416l0.001 0c-0.008,-0.272 0.153,-0.532 0.421,-0.638 0.342,-0.136 0.73,0.031 0.866,0.374 0.594,1.492 1.063,2.846 1.42,4.092 0.103,0.295 0.261,0.596 0.445,0.877 0.263,0.402 0.57,0.749 0.839,0.981 2.751,2.368 8.616,4.874 12.861,6.689 1.386,0.591 2.601,1.111 3.493,1.533 2.704,1.28 4.531,3.032 5.772,5.159 1.225,2.102 1.863,4.55 2.204,7.263l0.609 4.845c0.044,0.367 -0.217,0.701 -0.584,0.746 -0.367,0.045 -0.701,-0.217 -0.746,-0.584l-0.608 -4.845c-0.321,-2.548 -0.91,-4.831 -2.032,-6.755 -1.107,-1.898 -2.747,-3.466 -5.185,-4.62 -0.875,-0.414 -2.076,-0.927 -3.446,-1.513 -4.194,-1.792 -9.937,-4.246 -12.929,-6.667 0.868,5.778 -1.28,9.169 -4.819,14.751 -0.852,1.344 -1.786,2.818 -2.757,4.452 -0.06,0.102 -0.148,0.189 -0.259,0.249 -0.326,0.175 -0.731,0.053 -0.906,-0.272l-4.462 -8.288c-0.175,-0.325 -0.053,-0.73 0.272,-0.905 0.325,-0.175 0.73,-0.053 0.905,0.272l3.906 7.253c0.774,-1.274 1.498,-2.417 2.171,-3.478 4.183,-6.599 6.318,-9.968 3.441,-18.458 -0.243,0.595 -0.586,1.165 -1.032,1.73 -0.986,1.248 -2.47,2.451 -4.487,3.84 -0.062,0.043 -0.129,0.074 -0.198,0.093 -0.051,0.241 -0.122,0.481 -0.21,0.714 -0.317,0.84 -0.87,1.616 -1.488,1.954 -0.25,0.138 -0.08,0.043 -0.367,0.2 -1.551,0.844 -2.206,1.201 -3.49,3.28 -0.715,1.157 -1.312,2.06 -2.033,2.999 -0.724,0.941 -1.551,1.892 -2.72,3.138 -1.76,1.877 -2.788,3.5 -3.477,5.213 -0.697,1.734 -1.061,3.591 -1.484,5.9zm32.757 -76.037c-0.202,0.111 -0.456,0.037 -0.567,-0.165 -0.111,-0.203 -0.037,-0.457 0.165,-0.568 0.435,-0.24 0.888,-0.536 1.36,-0.896 0.476,-0.364 0.971,-0.793 1.481,-1.297 0.165,-0.161 0.429,-0.159 0.591,0.005 0.161,0.164 0.159,0.429 -0.005,0.59 -0.538,0.531 -1.058,0.983 -1.56,1.366 -0.507,0.387 -0.996,0.705 -1.465,0.965zm-51.533 18.066l1.34 0 0 1.339 -1.34 0 0 -1.339zm0 -16.076l1.34 0 0 1.339 -1.34 0 0 -1.339zm0 5.358l1.34 0 0 1.34 -1.34 0 0 -1.34zm0 5.359l1.34 0 0 1.34 -1.34 0 0 -1.34zm7.346 56.615c0.103,-0.207 0.354,-0.291 0.561,-0.188 0.207,0.103 0.291,0.354 0.188,0.561 -0.271,0.543 -0.553,1.095 -0.845,1.648 -0.279,0.531 -0.564,1.058 -0.853,1.575 -0.111,0.202 -0.365,0.274 -0.567,0.162 -0.201,-0.112 -0.274,-0.366 -0.162,-0.567 0.274,-0.491 0.556,-1.013 0.843,-1.559 0.271,-0.514 0.55,-1.06 0.835,-1.632zm-4.984 -44.615l-3.349 0 0 3.349 3.349 0 0 -3.349zm-4.019 -1.34l4.689 0c0.37,0 0.67,0.3 0.67,0.67l0 4.689c0,0.37 -0.3,0.67 -0.67,0.67l-4.689 0c-0.37,0 -0.669,-0.3 -0.669,-0.67l0 -4.689c0,-0.37 0.299,-0.67 0.669,-0.67zm-7.362 -9.872l-5.693 0 0 5.694 5.693 0 0 -5.694zm-6.363 -1.34l7.033 0c0.37,0 0.67,0.3 0.67,0.67l0 7.033c0,0.37 -0.3,0.67 -0.67,0.67l-7.033 0c-0.37,0 -0.67,-0.3 -0.67,-0.67l0 -7.033c0,-0.37 0.3,-0.67 0.67,-0.67zm-5.017 -9.872l-8.038 0 0 8.038 8.038 0 0 -8.038zm-8.708 -1.34l9.378 0c0.37,0 0.67,0.3 0.67,0.67l0 9.378c0,0.37 -0.3,0.669 -0.67,0.669l-9.378 0c-0.37,0 -0.67,-0.299 -0.67,-0.669l0 -9.378c0,-0.37 0.3,-0.67 0.67,-0.67zm24.833 -15.156c0,0.37 -0.3,0.67 -0.67,0.67 -0.37,0 -0.67,-0.3 -0.67,-0.67 0,-1.906 0.681,-3.638 1.781,-4.898 1.121,-1.283 2.675,-2.077 4.396,-2.077l0 0.003 0.043 0c2.077,0.012 3.699,0.853 4.804,2.096 1.097,1.234 1.677,2.868 1.677,4.476l-0.001 0.037c-0.006,1.223 -0.385,2.428 -1.03,3.431 -0.646,1.005 -1.562,1.817 -2.643,2.254 -0.581,0.236 -1.15,0.494 -1.532,1.039 -0.414,0.589 -0.678,1.55 -0.654,3.226 0.005,0.368 -0.29,0.67 -0.659,0.675 -0.368,0.004 -0.671,-0.291 -0.675,-0.66 -0.029,-1.998 0.331,-3.209 0.894,-4.01 0.594,-0.847 1.353,-1.198 2.124,-1.51 0.819,-0.332 1.519,-0.957 2.02,-1.736 0.514,-0.8 0.815,-1.753 0.821,-2.714l0 -0.032c0,-1.29 -0.463,-2.598 -1.341,-3.586 -0.871,-0.98 -2.156,-1.642 -3.81,-1.651l-0.038 0 0 0.002c-1.319,0 -2.519,0.618 -3.391,1.616 -0.894,1.023 -1.446,2.443 -1.446,4.019zm14.796 67.874c0.059,-0.212 0.115,-0.421 0.169,-0.627 0.496,-1.904 1.251,-3.695 2.129,-5.431 0.244,-1.777 0.596,-3.577 0.947,-5.376 0.066,-0.34 0.133,-0.679 0.198,-1.017 -0.273,0.214 -0.544,0.426 -0.804,0.631 -5.55,4.35 -5.766,4.52 -7.393,12.621l4.754 -0.801zm10.369 -46.558c-0.158,0.333 -0.556,0.476 -0.89,0.319 -0.334,-0.158 -0.477,-0.556 -0.319,-0.89 3.573,-7.584 7.964,-12.033 12.711,-14.394 4.76,-2.367 9.85,-2.621 14.822,-1.824 2.682,0.43 4.004,1.199 5.949,2.331 0.816,0.475 1.746,1.016 2.935,1.619 0.41,0.209 0.85,0.418 1.253,0.61 2.203,1.048 3.328,1.584 4.334,4.449 0.183,0.522 0.389,1.088 0.6,1.67 1.37,3.78 2.979,8.215 2.828,12.624 -0.083,2.42 -0.897,4.774 -2.081,7.048 -1.161,2.229 -2.684,4.388 -4.218,6.455 -0.219,0.296 -0.637,0.358 -0.934,0.138 -0.296,-0.219 -0.358,-0.637 -0.138,-0.934 1.493,-2.012 2.975,-4.113 4.102,-6.277 1.103,-2.117 1.859,-4.286 1.935,-6.471 0.142,-4.153 -1.42,-8.459 -2.75,-12.127 -0.207,-0.57 -0.408,-1.124 -0.605,-1.686 -0.82,-2.334 -1.776,-2.789 -3.648,-3.68 -0.366,-0.174 -0.766,-0.365 -1.28,-0.625 -1.228,-0.624 -2.173,-1.174 -3.003,-1.656 -1.82,-1.059 -3.057,-1.779 -5.488,-2.169 -4.724,-0.757 -9.544,-0.523 -14.022,1.703 -4.489,2.233 -8.663,6.483 -12.093,13.767zm20.336 31.228c0.299,-0.216 0.716,-0.148 0.931,0.151 0.216,0.3 0.148,0.717 -0.151,0.932 -4.52,3.252 -5.661,3.378 -8.698,3.714 -0.152,0.017 -0.309,0.035 -0.472,0.053 -0.367,0.041 -0.698,-0.224 -0.738,-0.591 -0.04,-0.367 0.224,-0.698 0.591,-0.738 0.163,-0.019 0.321,-0.036 0.473,-0.053 2.786,-0.308 3.833,-0.424 8.064,-3.468zm9.739 -33.179c0.005,-0.369 0.307,-0.664 0.675,-0.66 0.369,0.004 0.664,0.307 0.66,0.675 -0.018,1.331 -0.101,2.66 -0.185,4.003 -0.244,3.887 -0.495,7.899 0.848,11.296 1.078,2.728 0.517,4.063 -0.387,6.216l-0.059 0.141c0.124,-0.043 0.249,-0.078 0.374,-0.106 0.587,-0.135 1.17,-0.12 1.685,0.042 0.546,0.173 1.015,0.509 1.338,1.005 0.304,0.466 0.468,1.062 0.431,1.783 -0.108,2.108 -1.086,3.639 -2.486,4.866 -1.336,1.171 -3.029,2.037 -4.695,2.875 -0.979,0.492 -2.059,0.829 -3.038,0.848 -0.926,0.017 -1.765,-0.243 -2.378,-0.901 -0.251,-0.271 -0.236,-0.694 0.034,-0.945l2.186 -2.155c0.263,-0.258 0.686,-0.255 0.945,0.008 0.259,0.263 0.255,0.686 -0.008,0.945l-1.619 1.596c0.244,0.087 0.521,0.123 0.819,0.117 0.762,-0.014 1.64,-0.295 2.457,-0.706 1.593,-0.801 3.209,-1.627 4.418,-2.687 1.145,-1.003 1.944,-2.243 2.031,-3.929 0.021,-0.421 -0.062,-0.749 -0.216,-0.987 -0.144,-0.222 -0.363,-0.374 -0.622,-0.456 -0.291,-0.092 -0.631,-0.097 -0.984,-0.016 -0.537,0.123 -1.092,0.441 -1.55,0.959 -0.173,0.21 -0.465,0.302 -0.736,0.207 -0.349,-0.121 -0.532,-0.502 -0.411,-0.85 0.302,-0.87 0.59,-1.557 0.849,-2.172 0.774,-1.843 1.254,-2.986 0.376,-5.206 -1.45,-3.67 -1.189,-7.833 -0.937,-11.867 0.085,-1.351 0.169,-2.688 0.185,-3.939zm-34.819 23.325c-0.062,0.364 -0.408,0.609 -0.772,0.547 -0.364,-0.062 -0.609,-0.408 -0.547,-0.772 0.447,-2.59 1.103,-5.973 2.055,-9.268 0.959,-3.321 2.218,-6.54 3.866,-8.755 3.642,-4.897 7.044,-7.906 11.053,-9.2 4.01,-1.294 8.56,-0.852 14.494,1.156l0.062 0.021c0.973,0.331 2.896,0.983 5.527,-0.471 0.425,-0.235 0.868,-0.523 1.329,-0.875 0.468,-0.358 0.955,-0.781 1.457,-1.277 0.263,-0.258 0.686,-0.255 0.945,0.008 0.259,0.263 0.255,0.686 -0.008,0.945 -0.546,0.538 -1.074,0.997 -1.583,1.386 -0.518,0.395 -1.017,0.72 -1.496,0.985 -3.144,1.739 -5.44,0.96 -6.6,0.566l-0.063 -0.021c-5.653,-1.914 -9.944,-2.35 -13.656,-1.151 -3.713,1.199 -6.916,4.054 -10.389,8.723 -1.54,2.071 -2.735,5.143 -3.656,8.331 -0.928,3.213 -1.576,6.556 -2.018,9.122zm-1.371 15.578c0.209,-0.359 0.419,-0.717 0.629,-1.074 0.255,-0.436 0.511,-0.872 0.867,-1.489 0.528,-0.913 1.004,-1.472 1.645,-1.809 0.169,-0.089 0.344,-0.159 0.529,-0.215 -0.34,-0.535 -0.453,-1.229 -0.374,-2.12 0.096,-1.072 0.151,-2.117 0.132,-2.996 -0.015,-0.706 -0.078,-1.29 -0.207,-1.666 -0.147,-0.429 -0.329,-0.657 -0.512,-0.737 -0.084,-0.037 -0.177,-0.041 -0.271,-0.018 -0.125,0.03 -0.253,0.103 -0.373,0.208 -0.294,0.258 -0.507,0.676 -0.51,1.136 -0.016,2.891 -0.633,6.05 -1.25,9.208 -0.103,0.525 -0.205,1.05 -0.305,1.572z"/></g><text x="0" y="115" fill="#000000" font-size="5px" font-weight="bold" font-family="'Helvetica Neue', Helvetica, Arial-Unicode, Arial, Sans-serif">Created by Olena Panasovska</text><text x="0" y="120" fill="#000000" font-size="5px" font-weight="bold" font-family="'Helvetica Neue', Helvetica, Arial-Unicode, Arial, Sans-serif">from the Noun Project</text></svg>