<svg xmlns="http://www.w3.org/2000/svg" xmlns:xlink="http://www.w3.org/1999/xlink" width="70px" height="90px" version="1.1" x="0px" y="0px" viewBox="0 0 66 82.5" style="enable-background:new 0 0 66 66;" xml:space="preserve"><g><g><path d="M6.1,15.5h10.4c0.6,0,1-0.4,1-1V5.2c0-0.6-0.4-1-1-1H6.1c-0.6,0-1,0.4-1,1v9.2C5.1,15,5.6,15.5,6.1,15.5z M7.1,6.2h8.4    v7.2H7.1V6.2z"/></g><g><path d="M20.7,15.5h10.4c0.6,0,1-0.4,1-1V5.2c0-0.6-0.4-1-1-1H20.7c-0.6,0-1,0.4-1,1v9.2C19.7,15,20.1,15.5,20.7,15.5z M21.7,6.2    h8.4v7.2h-8.4V6.2z"/></g><g><path d="M6.1,29h10.4c0.6,0,1-0.4,1-1v-9.2c0-0.6-0.4-1-1-1H6.1c-0.6,0-1,0.4-1,1V28C5.1,28.6,5.6,29,6.1,29z M7.1,19.8h8.4V27    H7.1V19.8z"/></g><g><path d="M20.7,29h10.4c0.6,0,1-0.4,1-1v-9.2c0-0.6-0.4-1-1-1H20.7c-0.6,0-1,0.4-1,1V28C19.7,28.6,20.1,29,20.7,29z M21.7,19.8h8.4    V27h-8.4V19.8z"/></g><g><path d="M16.5,42.4c0.6,0,1-0.4,1-1v-9.2c0-0.6-0.4-1-1-1H6.1c-0.6,0-1,0.4-1,1v9.2c0,0.6,0.4,1,1,1H16.5z M7.1,33.2h8.4v7.2H7.1    V33.2z"/></g><g><path d="M20.7,42.4h10.4c0.6,0,1-0.4,1-1v-9.2c0-0.6-0.4-1-1-1H20.7c-0.6,0-1,0.4-1,1v9.2C19.7,42,20.1,42.4,20.7,42.4z     M21.7,33.2h8.4v7.2h-8.4V33.2z"/></g><g><path d="M65,33.5H37.2V1c0-0.6-0.4-1-1-1H1C0.4,0,0,0.4,0,1v64c0,0.6,0.4,1,1,1c3.5,0,33.6,0,64,0c0.6,0,1-0.4,1-1V34.5    C66,33.9,65.6,33.5,65,33.5z M2,2h33.2c0,7.9,0,55.2,0,62H28V45.6c0-0.6-0.4-1-1-1H10.2c-0.6,0-1,0.4-1,1V64H2V2z M11.2,64V46.6    H26V64H11.2z M45.2,64V50H56v14H45.2z M64,64h-6V49c0-0.6-0.4-1-1-1H44.2c-0.6,0-1,0.4-1,1v15h-6V35.5H64V64z"/></g><g><path d="M52.9,26.5C52.9,26.5,52.9,26.5,52.9,26.5c0.4,0,0.7-0.2,0.9-0.5c0.3-0.5,7.4-12.2,7.4-17.8c0-4.6-3.7-8.3-8.3-8.3    c-4.6,0-8.3,3.7-8.3,8.3c0,5.8,7.1,17.3,7.4,17.8C52.2,26.4,52.5,26.5,52.9,26.5z M52.9,2c3.4,0,6.3,2.8,6.3,6.3    c0,3.9-4.4,12-6.3,15.3c-1.9-3.2-6.2-11.2-6.2-15.3C46.6,4.8,49.4,2,52.9,2z"/></g><g><path d="M57.5,8.1c0-2.6-2.1-4.7-4.7-4.7c-2.6,0-4.7,2.1-4.7,4.7c0,2.6,2.1,4.7,4.7,4.7C55.4,12.8,57.5,10.7,57.5,8.1z M50.2,8.1    c0-1.5,1.2-2.7,2.7-2.7c1.5,0,2.7,1.2,2.7,2.7c0,1.5-1.2,2.7-2.7,2.7C51.4,10.8,50.2,9.6,50.2,8.1z"/></g><g><path d="M41.6,25.7l1.7-1.7v7.1c0,0.6,0.4,1,1,1c0.6,0,1-0.4,1-1V24l1.7,1.7c0.4,0.4,1,0.4,1.4,0c0.4-0.4,0.4-1,0-1.4L45,20.9    c-0.4-0.4-1-0.4-1.4,0l-3.4,3.4c-0.4,0.4-0.4,1,0,1.4C40.6,26.1,41.2,26.1,41.6,25.7z"/></g><g><path d="M60.7,20.9l-3.4,3.4c-0.4,0.4-0.4,1,0,1.4c0.4,0.4,1,0.4,1.4,0l1.7-1.7v7.1c0,0.6,0.4,1,1,1c0.6,0,1-0.4,1-1V24l1.7,1.7    c0.4,0.4,1,0.4,1.4,0c0.4-0.4,0.4-1,0-1.4l-3.4-3.4C61.7,20.5,61.1,20.5,60.7,20.9z"/></g><g><path d="M40.7,46.4h7.6c0.6,0,1-0.4,1-1v-7.6c0-0.6-0.4-1-1-1h-7.6c-0.6,0-1,0.4-1,1v7.6C39.7,45.9,40.2,46.4,40.7,46.4z     M41.7,38.8h5.6v5.6h-5.6V38.8z"/></g><g><path d="M52.9,46.4h7.6c0.6,0,1-0.4,1-1v-7.6c0-0.6-0.4-1-1-1h-7.6c-0.6,0-1,0.4-1,1v7.6C51.9,45.9,52.3,46.4,52.9,46.4z     M53.9,38.8h5.6v5.6h-5.6V38.8z"/></g></g></svg>