<svg xmlns="http://www.w3.org/2000/svg" data-name="Layer 1" viewBox="0 0 90 112.5" x="0px" y="0px" width="150" height="150" fill="#f7322e"><path d="M45.065,42.6A12.206,12.206,0,1,0,32.859,30.4,12.22,12.22,0,0,0,45.065,42.6Zm0-21.25A9.044,9.044,0,1,1,36.021,30.4,9.055,9.055,0,0,1,45.065,21.352ZM71.507,49.2A9.8,9.8,0,1,0,61.7,39.4,9.815,9.815,0,0,0,71.507,49.2Zm0-16.447A6.643,6.643,0,1,1,64.864,39.4,6.65,6.65,0,0,1,71.507,32.757ZM18.582,49.2a9.8,9.8,0,1,0-9.8-9.8A9.815,9.815,0,0,0,18.582,49.2Zm0-16.447A6.643,6.643,0,1,1,11.939,39.4,6.65,6.65,0,0,1,18.582,32.757Zm70.06,28.057a14.586,14.586,0,0,0-3.15-7.606,8.463,8.463,0,0,0-7.405-3.237,1.593,1.593,0,0,0-.878.378,8.2,8.2,0,0,1-5.683,2.408H71.4a8.192,8.192,0,0,1-5.684-2.408,1.575,1.575,0,0,0-.878-.378,7.977,7.977,0,0,0-1.012-.037,14.95,14.95,0,0,0-1.043-1.4,10.49,10.49,0,0,0-9.168-4.02,1.581,1.581,0,0,0-.878.377c-2.586,2.24-5.163,3.323-7.664,3.224h-.127c-2.5.1-5.079-.984-7.665-3.224a1.578,1.578,0,0,0-.877-.377,10.49,10.49,0,0,0-9.169,4.02,15.034,15.034,0,0,0-1.044,1.4,8.019,8.019,0,0,0-1.027.035,1.586,1.586,0,0,0-.878.378A8.207,8.207,0,0,1,18.6,52.757h-.127a8.212,8.212,0,0,1-5.684-2.408,1.579,1.579,0,0,0-.877-.378,8.463,8.463,0,0,0-7.4,3.237,14.586,14.586,0,0,0-3.15,7.606C.684,66.75,3.571,71.164,8.541,71.8a1.5,1.5,0,0,0,.2.013H28.334a1.493,1.493,0,0,0,.2-.013,8.794,8.794,0,0,0,1.741-.4,11.041,11.041,0,0,0,1.876.4,1.482,1.482,0,0,0,.2.013H57.665a1.482,1.482,0,0,0,.2-.013,11.139,11.139,0,0,0,1.866-.4,8.811,8.811,0,0,0,1.735.4,1.482,1.482,0,0,0,.2.013H81.259a1.5,1.5,0,0,0,.2-.013C86.429,71.164,89.316,66.75,88.642,60.814ZM11.785,68.648V62.626a1.581,1.581,0,0,0-3.162,0V68.61c-3.58-.65-4.488-4.233-4.123-7.439.463-4.077,3.036-8.078,6.613-8.078h.029a11.112,11.112,0,0,0,7.4,2.826,10.161,10.161,0,0,0,5.537-1.525,19.463,19.463,0,0,0-.8,3.723,14.789,14.789,0,0,0,1.45,8.721,10.027,10.027,0,0,0,1.27,1.81Zm45.776,0h-.2V60.406a1.581,1.581,0,1,0-3.161,0v8.242H35.822V60.406a1.581,1.581,0,0,0-3.162,0v8.242h-.2c-5.223-.723-6.549-5.719-6.043-10.174.622-5.477,4.123-10.847,9-10.847q.1,0,.207,0c3.065,2.53,6.222,3.756,9.387,3.648,3.171.11,6.323-1.118,9.387-3.648,4.988-.16,8.579,5.29,9.21,10.844C64.111,62.929,62.784,67.925,57.561,68.648Zm23.816-.038V62.626a1.581,1.581,0,1,0-3.162,0v6.022H64.026a10.082,10.082,0,0,0,1.271-1.81,14.8,14.8,0,0,0,1.449-8.721,19.335,19.335,0,0,0-.8-3.711,10.145,10.145,0,0,0,5.517,1.513,11.11,11.11,0,0,0,7.4-2.826h.029c3.576,0,6.15,4,6.613,8.078C85.865,64.377,84.957,67.96,81.377,68.61Z"/></svg>