<svg xmlns="http://www.w3.org/2000/svg" xmlns:xlink="http://www.w3.org/1999/xlink" width="70px" height="90px" version="1.1" x="0px" y="0px" viewBox="0 0 66 82.5" enable-background="new 0 0 66 66" xml:space="preserve"><g><path d="M35.994,60.235c-0.705,0.308-1.158,0.929-1.156,1.583c0.002,0.771,0.602,1.4,1.563,1.641   c0.763,0.19,23.373,0.447,25.526,0.401c0.628-0.013,1.409-0.029,2.083-0.411c0.735-0.416,1.264-1.384,0.836-2.222   c-0.463-0.908-1.655-0.975-2.164-1.003C52.403,59.649,37.393,59.623,35.994,60.235z M63.957,61.682   c0.148,0.289-0.109,0.712-0.438,0.898c-0.421,0.238-0.957,0.268-1.612,0.281c-3.973,0.088-24.536-0.301-25.263-0.372   c-0.134-0.034-0.805-0.225-0.806-0.674c-0.001-0.248,0.228-0.521,0.556-0.664c1-0.436,15.299-0.54,26.232,0.072   C63.111,61.25,63.776,61.327,63.957,61.682z"/><path d="M2.563,63.459c0.76,0.19,23.368,0.448,25.526,0.402c0.628-0.013,1.409-0.029,2.083-0.411   c0.735-0.416,1.264-1.384,0.836-2.223c-0.464-0.908-1.656-0.974-2.165-1.003c-8.296-0.465-16.712-0.558-25.013-0.272   c-2.125,0.071-2.835,0.952-2.831,1.866C1.002,62.59,1.601,63.219,2.563,63.459z M3.864,60.951   c8.09-0.276,16.456-0.202,24.923,0.271c0.484,0.027,1.148,0.104,1.33,0.459c0.148,0.289-0.109,0.712-0.438,0.898   c-0.421,0.238-0.956,0.268-1.612,0.281C24.092,62.943,3.531,62.56,2.805,62.49c-0.134-0.034-0.805-0.225-0.806-0.674   C1.996,61.08,3.138,60.976,3.864,60.951z"/><path d="M20.811,33.151c9.816-0.24,14.517-0.286,24.793-0.11c3.453,0.057,4.94,1.138,4.208,6.129l-7.125,0.163   c-4.868,0.111-6.473,1.632-6.484,6.777l-0.02,8.894c-0.009,4.794,2.309,3.805,11.735,3.782c3.9-0.009,7.933-0.019,11.938-0.155   c2.921-0.099,3.727-1.126,3.737-3.705l0.046-11.579c0.004-1.146-0.048-2.247-0.733-3.114c-0.932-1.176-2.529-1.302-4.117-1.268   l-7.711,0.176c-0.012-0.149-0.066-0.271-0.199-0.367c0.678-5.001-1.259-6.664-5.259-6.732c-4.666-0.079-8.183-0.112-11.552-0.103   v-3.845c0.476-0.005,0.951-0.009,1.425-0.017c0.243-0.004,0.448-0.182,0.485-0.422l0.346-2.191c0.833-0.291,1.64-0.679,2.406-1.156   c0.651,0.61,1.325,1.127,2.049,1.575c0.201,0.123,0.461,0.091,0.623-0.079c0.89-0.926,1.788-1.83,2.717-2.797   c0.168-0.175,0.187-0.445,0.044-0.641c-0.435-0.597-1.107-1.524-1.513-2.075c0.428-0.714,0.772-1.461,1.027-2.229   c0.936-0.029,1.798-0.142,2.625-0.342c0.228-0.055,0.386-0.26,0.382-0.494c-0.011-0.644-0.018-1.293-0.025-1.942   c-0.007-0.651-0.015-1.302-0.025-1.948c-0.004-0.243-0.182-0.448-0.422-0.486c-0.633-0.099-1.512-0.238-2.151-0.342   c-0.18-0.95-0.484-1.862-0.908-2.72c0.503-0.571,0.926-1.144,1.289-1.742c0.121-0.2,0.087-0.457-0.081-0.62   c-0.929-0.893-1.903-1.866-2.79-2.717c-0.174-0.169-0.446-0.187-0.642-0.043l-1.454,1.063c-0.898-0.565-1.883-0.997-2.884-1.262   c-0.058-0.685-0.159-1.324-0.307-1.946c-0.055-0.229-0.226-0.369-0.498-0.384c-1.243,0.028-2.529,0.028-3.894,0.051   c-0.244,0.004-0.449,0.184-0.486,0.425c-0.101,0.658-0.201,1.311-0.306,1.968c-0.948,0.283-1.828,0.688-2.623,1.207   c-0.598-0.534-1.21-0.995-1.863-1.404c-0.199-0.124-0.46-0.093-0.625,0.076l-2.725,2.797c-0.169,0.175-0.188,0.446-0.044,0.643   l1.202,1.648c-0.453,0.681-0.774,1.434-0.979,2.292c-0.03,0.127-0.056,0.253-0.08,0.381c-0.796,0.043-1.546,0.149-2.281,0.325   c-0.229,0.054-0.388,0.26-0.384,0.495c0.011,0.633,0.018,1.271,0.025,1.909c0.007,0.662,0.015,1.324,0.026,1.981   c0.004,0.243,0.182,0.447,0.421,0.485l2.523,0.4c0.213,0.802,0.478,1.609,0.807,2.363c-0.611,0.656-1.124,1.326-1.559,2.041   c-0.122,0.2-0.088,0.458,0.081,0.621c0.465,0.447,0.928,0.901,1.391,1.355c0.466,0.457,0.931,0.913,1.399,1.362   c0.174,0.17,0.446,0.187,0.641,0.043l1.483-1.08c0.848,0.559,1.821,0.979,2.853,1.229c0.053,0.696,0.155,1.353,0.31,1.998   c0.054,0.225,0.256,0.383,0.486,0.383c0.003,0,0.007,0,0.011,0c0.489-0.011,0.979-0.015,1.469-0.02v3.836   c-3.706,0.019-7.35,0.09-12.283,0.21c-4.661,0.114-5.634,2.624-4.3,7.007l-7.638,0.175c-4.868,0.111-6.473,1.632-6.484,6.777   l-0.02,8.893c-0.007,2.635,0.795,3.84,3.58,3.84c0.098,0,0.195-0.001,0.293-0.002c2.633-0.042,5.25-0.049,7.862-0.055   c3.9-0.009,7.933-0.019,11.938-0.155c2.921-0.099,3.727-1.126,3.737-3.705L29.8,43.346c0.012-3.05-0.908-4.465-4.85-4.382   l-7.449,0.17c-0.003-0.036,0-0.071-0.01-0.107C16.29,35.096,16.825,33.248,20.811,33.151z M51.925,57.765l0.335-0.335l0.331,0.331   C52.368,57.763,52.148,57.764,51.925,57.765z M56.269,55.72l1.037,1.037l-0.518,0.518c-0.098,0.098-0.098,0.256,0,0.354   c0.042,0.042,0.097,0.057,0.152,0.063c-0.407,0.008-0.814,0.019-1.221,0.025c0.05-0.094,0.052-0.208-0.027-0.288l-0.566-0.565   L56.269,55.72z M55.281,57.725c-0.346,0.005-0.693,0.018-1.039,0.022l0.53-0.53L55.281,57.725z M59.822,57.631   c-0.943,0.032-1.886,0.039-2.831,0.059c0.054-0.007,0.108-0.021,0.149-0.062l0.518-0.518l0.417,0.417   c0.098,0.098,0.256,0.098,0.353,0c0.098-0.098,0.098-0.256,0-0.354l-0.417-0.417l1.009-1.009l1.796,1.796   C60.497,57.591,60.162,57.619,59.822,57.631z M59.376,55.393l1.143-1.143l0.849,0.849l-1.143,1.143L59.376,55.393z M61.312,57.432   c-0.001-0.063-0.024-0.126-0.072-0.174l-0.662-0.662l1.143-1.144l0.226,0.226c0.098,0.098,0.256,0.098,0.354,0   c0.098-0.098,0.098-0.256,0-0.354l-0.226-0.225l0.52-0.52l-0.001,0.342C62.587,56.376,62.418,57.099,61.312,57.432z M62.616,49.385   l-0.487-0.487l0.491-0.491L62.616,49.385z M58.813,39.964c0.15-0.003,0.302-0.006,0.455-0.006c1.107,0,2.246,0.126,2.855,0.896   c0.485,0.613,0.521,1.49,0.518,2.489l-0.018,4.416c-0.036,0.012-0.076,0.014-0.104,0.043l-0.743,0.743l-0.144-0.144   c-0.098-0.098-0.256-0.098-0.354,0c-0.098,0.098-0.098,0.256,0,0.354l0.144,0.144l-0.09,0.09c-0.098,0.098-0.098,0.256,0,0.354   c0.098,0.098,0.256,0.098,0.354,0l0.09-0.09l0.838,0.838l-0.009,2.331l-1.036-1.036l0.841-0.841c0.098-0.098,0.098-0.256,0-0.354   c-0.098-0.098-0.256-0.098-0.354,0l-0.841,0.841l-0.117-0.117c-0.098-0.098-0.256-0.098-0.354,0c-0.098,0.098-0.098,0.256,0,0.354   l0.117,0.117l-0.331,0.331c-0.098,0.098-0.098,0.256,0,0.354c0.098,0.098,0.256,0.098,0.354,0l0.331-0.331l1.387,1.387   l-0.004,0.914c-0.079-0.016-0.161-0.007-0.222,0.054l-0.653,0.653l-0.849-0.849l0.465-0.465c0.098-0.098,0.098-0.256,0-0.354   c-0.098-0.098-0.256-0.098-0.354,0l-0.465,0.465l-0.438-0.438c-0.098-0.098-0.256-0.098-0.354,0c-0.098,0.098-0.098,0.256,0,0.354   l0.438,0.438l-1.143,1.143l-0.599-0.599c-0.098-0.098-0.256-0.098-0.354,0c-0.098,0.098-0.098,0.256,0,0.354l0.599,0.599   l-1.009,1.009l-1.037-1.037l1.598-1.598c0.098-0.098,0.098-0.256,0-0.354c-0.098-0.098-0.256-0.098-0.354,0l-1.605,1.605   c-0.098-0.079-0.239-0.082-0.33,0.01c-0.091,0.091-0.089,0.232-0.01,0.33l-1.15,1.15l-0.518-0.518   c-0.098-0.098-0.256-0.098-0.354,0c-0.098,0.098-0.098,0.256,0,0.354l0.518,0.518l-0.894,0.894   c-0.107,0.001-0.211,0.001-0.318,0.001c-0.006-0.055-0.021-0.11-0.063-0.151l-0.53-0.53l2.263-2.264   c0.098-0.098,0.098-0.256,0-0.354c-0.098-0.098-0.256-0.098-0.354,0l-2.263,2.264l-0.197-0.197c-0.098-0.098-0.256-0.098-0.354,0   c-0.098,0.098-0.098,0.256,0,0.354l0.198,0.197l-0.692,0.692c-6.114,0.03-8.059,0.022-11.174,0.072   c-2.281,0.028-2.862-0.458-2.857-2.836l0.02-8.894c0.01-4.666,1.273-5.684,5.507-5.779L58.813,39.964z M33.582,3.164l-0.583,0.583   l-0.57-0.57C32.812,3.172,33.197,3.168,33.582,3.164z M29.593,6.291L29.25,6.633l-0.088-0.088   C29.303,6.457,29.446,6.372,29.593,6.291z M25.465,6.43l0.413,0.413l-0.744,0.744l-0.403-0.403L25.465,6.43z M24.28,7.648   l0.102-0.105l0.398,0.398l-0.166,0.166L24.28,7.648z M24.458,11.954c0.105-0.411,0.241-0.796,0.412-1.154l0.499,0.499l-0.784,0.783   L24.458,11.954z M21.738,15.87c-0.002-0.184-0.005-0.368-0.007-0.552l0.279,0.279L21.738,15.87z M25.315,20.784l0.791,0.791   c-0.02,0.011-0.045,0.009-0.063,0.026l-0.791,0.791l-0.711-0.711C24.778,21.378,25.036,21.079,25.315,20.784z M24.242,22.088   l0.657,0.657l-0.262,0.262c-0.208-0.203-0.415-0.407-0.623-0.608C24.083,22.293,24.167,22.193,24.242,22.088z M31.768,25.314   c-0.011-0.229-0.177-0.421-0.401-0.466c-1.157-0.232-2.243-0.698-3.14-1.35c-0.176-0.127-0.413-0.127-0.588,0l-1.431,1.042   c-0.364-0.353-0.727-0.708-1.09-1.064c-0.041-0.04-0.082-0.08-0.123-0.121l0.258-0.258l0.02,0.02c0.098,0.098,0.256,0.098,0.354,0   c0.098-0.098,0.098-0.256,0-0.354l-0.02-0.02l0.791-0.791c0.017-0.017,0.015-0.042,0.026-0.063l0.172,0.172   c0.098,0.098,0.256,0.098,0.354,0c0.098-0.098,0.098-0.256,0-0.354l-1.357-1.357c0.015-0.096,0.004-0.197-0.039-0.289   c-0.413-0.879-0.745-1.907-0.965-2.812c-0.047-0.196-0.207-0.344-0.406-0.376l-2.365-0.375l0.549-0.549l0.27,0.27   c0.098,0.098,0.256,0.098,0.354,0c0.098-0.098,0.098-0.256,0-0.353l-0.27-0.27l0.709-0.709c0.098-0.098,0.098-0.256,0-0.354   c-0.098-0.098-0.256-0.098-0.354,0l-0.709,0.709l-0.642-0.641c-0.004-0.392-0.009-0.784-0.014-1.174   c0.286-0.057,0.578-0.099,0.874-0.135l0.082,0.082l-0.477,0.477c-0.098,0.098-0.098,0.256,0,0.353c0.098,0.098,0.256,0.098,0.354,0   l0.477-0.476l0.826,0.826c0.098,0.098,0.256,0.098,0.353,0c0.098-0.098,0.098-0.256,0-0.354l-0.825-0.825l0.117-0.116   c0.011-0.011,0.008-0.027,0.016-0.04c0.261-0.012,0.468,0.001,0.637-0.165c0.198,0.046,0.3-0.122,0.444-0.267l0.351,0.351   c0.098,0.098,0.256,0.098,0.354,0c0.098-0.098,0.098-0.256,0-0.354l-0.351-0.351l0.802-0.802c0.094,0.051,0.181,0.082,0.29-0.026   c0.08-0.08,0.078-0.195,0.026-0.29l0.566-0.566c0.098-0.098,0.098-0.256,0-0.354c-0.098-0.098-0.256-0.098-0.354,0l-0.547,0.547   l-0.589-0.589c0.102-0.172,0.187-0.356,0.308-0.518c0.131-0.176,0.133-0.417,0.003-0.594l-0.532-0.729l0.221-0.221l0.532,0.532   c0.098,0.098,0.256,0.098,0.354,0c0.098-0.098,0.098-0.256,0-0.354l-0.532-0.532l0.744-0.744l0.394,0.394   c0.098,0.098,0.256,0.098,0.354,0c0.098-0.098,0.098-0.256,0-0.354l-0.394-0.394l0.293-0.293c0.098-0.098,0.098-0.256,0-0.353   c-0.098-0.098-0.256-0.098-0.354,0L26.232,6.49l-0.418-0.418l0.609-0.626c0.58,0.39,1.128,0.831,1.668,1.339   c0.174,0.163,0.44,0.18,0.634,0.043c0.002-0.002,0.005-0.003,0.007-0.005l0.164,0.164l-0.516,0.516   c-0.098,0.098-0.098,0.256,0,0.353c0.098,0.098,0.256,0.098,0.354,0l0.516-0.516l0.185,0.185c0.098,0.098,0.256,0.098,0.354,0   c0.098-0.098,0.098-0.256,0-0.353l-0.185-0.185L30.1,6.491l0.534,0.534c0.098,0.098,0.256,0.098,0.354,0   c0.098-0.098,0.098-0.256,0-0.353l-0.534-0.534L30.891,5.7c0.132-0.048,0.271-0.085,0.407-0.127l0.421,0.421l-0.385,0.385   c-0.098,0.098-0.098,0.256,0,0.353c0.098,0.098,0.256,0.098,0.354,0l0.385-0.385l0.046,0.045c0.098,0.098,0.256,0.098,0.354,0   c0.098-0.098,0.098-0.256,0-0.353l-0.046-0.046l0.728-0.728c0.098-0.098,0.098-0.256,0-0.354c-0.098-0.098-0.256-0.098-0.353,0   L32.073,5.64l-0.266-0.266c0.116-0.076,0.21-0.181,0.233-0.323c0.073-0.45,0.141-0.897,0.211-1.345l0.395,0.395l-0.266,0.266   c-0.098,0.098-0.098,0.256,0,0.354c0.098,0.098,0.256,0.098,0.354,0l0.266-0.266l0.634,0.633c0.098,0.098,0.256,0.098,0.354,0   c0.098-0.098,0.098-0.256,0-0.353l-0.633-0.634l0.945-0.945c0.368-0.004,0.736-0.007,1.102-0.013   c0.111,0.554,0.184,1.131,0.222,1.751c0.013,0.222,0.172,0.409,0.39,0.457c1.116,0.251,2.223,0.733,3.201,1.397   c0.175,0.119,0.406,0.115,0.577-0.01l1.394-1.019c0.621,0.601,1.451,1.423,2.194,2.143c-0.338,0.511-0.73,1.007-1.191,1.506   c-0.145,0.157-0.174,0.388-0.073,0.576c0.512,0.955,0.856,1.989,1.024,3.075c0.033,0.213,0.2,0.381,0.413,0.417   c0.7,0.116,1.399,0.226,2.094,0.335c0.007,0.506,0.013,1.014,0.019,1.522c0.006,0.514,0.012,1.028,0.019,1.54   c-0.742,0.151-1.523,0.227-2.375,0.234c-0.221,0.002-0.414,0.148-0.476,0.359c-0.266,0.908-0.669,1.788-1.201,2.617   c-0.112,0.174-0.104,0.399,0.018,0.566c0.498,0.675,0.967,1.323,1.463,2.004c-0.741,0.766-1.409,1.443-2.141,2.2   c-0.639-0.427-1.239-0.919-1.824-1.497c-0.17-0.168-0.434-0.192-0.629-0.06c-0.876,0.586-1.814,1.041-2.788,1.352   c-0.18,0.057-0.312,0.212-0.341,0.398l-0.328,2.076c-1.066,0.015-2.031,0.018-3.069,0.036   C31.871,26.541,31.799,25.947,31.768,25.314z M15.457,56.281c0.004,0.057,0.022,0.115,0.066,0.159l0.883,0.883l-0.112,0.112   c-0.094,0.094-0.092,0.241-0.006,0.339c-0.618,0.002-1.246,0.008-1.858,0.009c0.023-0.084,0.017-0.172-0.048-0.238l-0.095-0.095   L15.457,56.281z M19.643,57.653c0.08,0.014,0.133,0.026,0.216-0.057l1.076-1.076l1.127,1.127c0.041,0.041,0.096,0.056,0.15,0.062   c-0.873,0.015-1.743,0.04-2.612,0.048C19.618,57.723,19.642,57.691,19.643,57.653z M17.149,57.359l-0.036-0.036l0.803-0.803   l1.24,1.24c-0.721,0.006-1.431,0.008-2.147,0.011c0.051-0.008,0.102-0.019,0.141-0.058C17.247,57.615,17.247,57.456,17.149,57.359z    M16.796,57.712c0.039,0.039,0.091,0.051,0.142,0.059c-0.091,0-0.183,0.001-0.274,0.001l0.096-0.096L16.796,57.712z M25.983,57.631   c-1.237,0.042-2.476,0.056-3.715,0.077c0.053-0.007,0.107-0.02,0.147-0.061c0.098-0.098,0.098-0.256,0-0.354l-1.127-1.127   l0.963-0.963l1.156,1.156l-0.434,0.434c-0.098,0.098-0.098,0.256,0,0.354c0.098,0.098,0.256,0.098,0.354,0l0.434-0.434l0.758,0.758   c0.098,0.098,0.256,0.098,0.353,0c0.098-0.098,0.098-0.256,0-0.354l-0.758-0.758l1.381-1.381l1.059,1.06l-0.69,0.69   c-0.098,0.098-0.098,0.256,0,0.354c0.098,0.098,0.256,0.098,0.353,0l0.69-0.691l0.916,0.916   C27.319,57.556,26.647,57.608,25.983,57.631z M23.993,53.462c0.006,0.007,0.003,0.016,0.009,0.022l1.14,1.14l-1.381,1.381   l-1.156-1.156L23.993,53.462z M28.232,57.007l-0.969-0.969l1.493-1.493l-0.001,0.377C28.751,55.661,28.744,56.488,28.232,57.007z    M28.782,47.987l-0.364-0.364l0.305-0.305c0.041-0.041,0.056-0.096,0.062-0.149L28.782,47.987z M24.973,39.964   c3.401-0.078,3.837,0.929,3.827,3.425l-0.015,3.726c-0.006-0.054-0.021-0.109-0.062-0.15c-0.098-0.098-0.256-0.098-0.354,0   l-0.305,0.305l-0.048-0.048c-0.098-0.098-0.256-0.098-0.354,0c-0.098,0.098-0.098,0.256,0,0.354l0.048,0.048l-0.048,0.048   c-0.098,0.098-0.098,0.256,0,0.354c0.099,0.099,0.239,0.115,0.402-0.048l0.714,0.714l-0.009,2.303l-0.801-0.801l0.469-0.469   c0.098-0.098,0.098-0.256,0-0.354c-0.098-0.098-0.256-0.098-0.354,0l-0.469,0.469l-0.177-0.177c-0.098-0.098-0.256-0.098-0.354,0   c-0.098,0.098-0.098,0.256,0,0.354l0.177,0.177l-0.498,0.498c-0.098,0.098-0.098,0.256,0,0.354c0.098,0.098,0.256,0.098,0.353,0   l0.498-0.498l0.885,0.885c0.049,0.049,0.113,0.073,0.177,0.073c0.033,0,0.06-0.025,0.091-0.038l-0.01,2.459   c-0.056,0.006-0.111,0.021-0.154,0.064l-1.695,1.695l-1.059-1.06l1.413-1.413l0.86,0.86c0.098,0.098,0.256,0.098,0.354,0   c0.098-0.098,0.098-0.256,0-0.354l-0.86-0.86l0.22-0.22c0.098-0.098,0.098-0.256,0-0.354c-0.098-0.098-0.256-0.098-0.353,0   l-0.22,0.22l-0.787-0.787c-0.098-0.098-0.256-0.098-0.354,0c-0.098,0.098-0.098,0.256,0,0.354l0.787,0.787l-1.413,1.413l-1.14-1.14   c-0.006-0.006-0.016-0.004-0.022-0.009l0.825-0.825c0.098-0.098,0.098-0.256,0-0.353c-0.098-0.098-0.256-0.098-0.354,0   l-2.572,2.572c-0.094-0.049-0.207-0.051-0.286,0.028c-0.079,0.079-0.077,0.191-0.028,0.285l-0.983,0.983l-0.691-0.691   c-0.098-0.098-0.256-0.098-0.354,0c-0.098,0.098-0.098,0.256,0,0.354l0.691,0.691l-1.076,1.076   c-0.031,0.031-0.036,0.074-0.047,0.114l-1.189-1.19l2.187-2.187c0.098-0.098,0.098-0.256,0-0.354c-0.098-0.098-0.256-0.098-0.354,0   l-2.188,2.187L17.803,55.7c-0.098-0.098-0.256-0.098-0.353,0c-0.098,0.098-0.098,0.256,0,0.354l0.112,0.112l-0.803,0.803   l-0.883-0.883c-0.044-0.044-0.102-0.062-0.159-0.066l0.62-0.621c0.098-0.098,0.098-0.256,0-0.354c-0.098-0.098-0.256-0.098-0.354,0   l-2.051,2.052L13.5,56.664c-0.098-0.098-0.256-0.098-0.354,0c-0.098,0.098-0.098,0.256,0,0.354l0.434,0.434l-0.241,0.241   c-0.027,0.027-0.029,0.065-0.041,0.099c-2.359,0.006-4.72,0.012-7.097,0.05c-2.293,0.036-2.863-0.478-2.857-2.836l0.02-8.894   c0.01-4.666,1.273-5.684,5.507-5.779L24.973,39.964z"/><path d="M35.161,8.447c-1.247-0.301-2.583-0.229-3.866,0.208c-2.19,0.747-3.867,2.555-4.487,4.838   c-0.609,2.245-0.084,4.616,1.405,6.341c1.923,2.229,5.29,3.022,8.004,1.888C42.401,19.137,41.702,10.024,35.161,8.447z    M34.719,9.381l-0.601,0.601c-0.001,0.001-0.001,0.004-0.002,0.005L33.409,9.28C33.822,9.266,34.047,9.246,34.719,9.381z    M32.801,9.332c0.012,0.027,0.011,0.059,0.034,0.081l0.164,0.164l-0.929,0.93l-0.774-0.774c0.107-0.044,0.211-0.095,0.322-0.133   C32.009,9.467,32.405,9.386,32.801,9.332z M30.867,10.011c-0.039,0.011-0.081,0.016-0.112,0.046l-0.931,0.931l-0.21-0.21   c0.362-0.322,0.763-0.598,1.196-0.824L30.867,10.011z M27.712,16.72l0.636,0.636l-0.315,0.315   C27.901,17.362,27.789,17.046,27.712,16.72z M28.97,19.18c-0.278-0.322-0.509-0.671-0.706-1.033l0.438-0.438l0.593,0.593   c0.098,0.098,0.256,0.098,0.353,0c0.098-0.098,0.098-0.256,0-0.354l-0.593-0.593l1.324-1.324c0.098-0.098,0.098-0.256,0-0.354   c-0.098-0.098-0.256-0.098-0.354,0l-1.324,1.324l-1.125-1.125c-0.059-0.695,0.003-1.411,0.196-2.124   c0.038-0.139,0.09-0.271,0.137-0.405l0.779,0.78l-0.786,0.786c-0.098,0.098-0.098,0.256,0,0.353c0.098,0.098,0.256,0.098,0.354,0   l0.786-0.786l0.767,0.768c0.098,0.098,0.256,0.098,0.354,0c0.098-0.098,0.098-0.256,0-0.354l-0.767-0.768l1.091-1.091   c0.098-0.098,0.098-0.256,0-0.354c-0.098-0.098-0.256-0.098-0.354,0l-1.091,1.091l-0.934-0.934c0.287-0.64,0.672-1.221,1.144-1.717   l0.218,0.218l-0.525,0.525c-0.098,0.098-0.098,0.256,0,0.354c0.098,0.098,0.256,0.098,0.354,0l0.525-0.525l1.048,1.048   c0.098,0.098,0.256,0.098,0.354,0c0.098-0.098,0.098-0.256,0-0.354l-1.048-1.048l0.931-0.931c0.031-0.031,0.035-0.073,0.046-0.112   l0.562,0.562l-0.164,0.164c-0.098,0.098-0.098,0.256,0,0.354c0.098,0.098,0.256,0.098,0.354,0l0.164-0.164l0.245,0.245   c0.098,0.098,0.256,0.098,0.354,0c0.098-0.098,0.098-0.256,0-0.354l-0.245-0.245l0.929-0.929l0.748,0.748   c0.098,0.098,0.256,0.098,0.354,0c0.094-0.094,0.092-0.241,0.006-0.339c0.003-0.003,0.008-0.002,0.011-0.005l0.802-0.802   c5.439,1.701,5.597,9.159,0.558,11.264C33.505,21.771,30.618,21.09,28.97,19.18z"/><path d="M43.763,43.203l-0.436,0.436l-0.918-0.918c-0.098-0.098-0.256-0.098-0.354,0c-0.098,0.098-0.098,0.256,0,0.354l0.918,0.918   l-0.869,0.869l-0.867-0.867c-0.098-0.098-0.256-0.098-0.354,0c-0.098,0.098-0.098,0.256,0,0.354l0.867,0.867l-1.275,1.275   c-0.098,0.098-0.098,0.256,0,0.354c0.098,0.098,0.256,0.098,0.354,0l1.275-1.275l1.08,1.08c0.098,0.098,0.256,0.098,0.354,0   c0.014-0.014,0.011-0.035,0.021-0.051c0.006-0.005,0.015-0.003,0.021-0.009l0.995-0.995l0.46,0.46c0.098,0.098,0.256,0.098,0.354,0   c0.098-0.098,0.098-0.256,0-0.354l-0.46-0.46l0.98-0.98c0.098-0.098,0.098-0.256,0-0.354c-0.098-0.098-0.256-0.098-0.353,0   l-0.98,0.98l-0.894-0.894l0.436-0.436l0.307,0.307c0.098,0.098,0.256,0.098,0.354,0c0.098-0.098,0.098-0.256,0-0.354l-0.347-0.347   c0.014-0.078,0.004-0.157-0.056-0.217c-0.06-0.06-0.14-0.07-0.217-0.056l-0.423-0.423c-0.098-0.098-0.256-0.098-0.354,0   c-0.098,0.098-0.098,0.256,0,0.354L43.763,43.203z M44.221,45.24l-0.869,0.869l-0.894-0.894l0.869-0.869L44.221,45.24z"/><path d="M8.489,43.881c-0.098-0.098-0.256-0.098-0.353,0c-0.098,0.098-0.098,0.256,0,0.353l0.562,0.562l-0.546,0.546l-1.525-1.525   c-0.098-0.098-0.256-0.098-0.354,0c-0.098,0.098-0.098,0.256,0,0.354l1.525,1.525l-1.06,1.06l-0.883-0.883   c-0.098-0.098-0.256-0.098-0.354,0c-0.098,0.098-0.098,0.256,0,0.354l0.89,0.89c-0.079,0.098-0.082,0.239,0.01,0.33   c0.085,0.085,0.211,0.106,0.33,0.01l0.954,0.954c0.098,0.098,0.256,0.098,0.354,0c0.098-0.098,0.098-0.256,0-0.354l-0.948-0.948   l1.06-1.06l1.429,1.429c0.098,0.098,0.256,0.098,0.354,0c0.098-0.098,0.098-0.256,0-0.354l-0.229-0.229   c0.022-0.012,0.049-0.009,0.068-0.028l0.498-0.498l0.626,0.626c0.098,0.098,0.256,0.098,0.354,0c0.098-0.098,0.098-0.256,0-0.354   l-0.626-0.626l1.661-1.661c0.098-0.098,0.098-0.256,0-0.354c-0.098-0.098-0.256-0.098-0.354,0l-1.661,1.661l-0.867-0.867   l1.284-1.284c0.098-0.098,0.098-0.256,0-0.354c-0.098-0.098-0.256-0.098-0.353,0l-1.284,1.284L8.489,43.881z M9.918,46.017   l-0.498,0.498c-0.019,0.019-0.017,0.046-0.028,0.068l-0.887-0.887l0.546-0.546L9.918,46.017z"/></g></svg>