<svg xmlns="http://www.w3.org/2000/svg" xmlns:xlink="http://www.w3.org/1999/xlink" width="70px" height="90px" version="1.1" x="0px" y="0px" viewBox="0 0 64 80" style="enable-background:new 0 0 64 64;" xml:space="preserve"><path d="M43.247,38.501c0.018-0.031,0.033-0.063,0.05-0.094c0.094-0.166,0.183-0.334,0.27-0.504c0.077-0.15,0.149-0.302,0.22-0.455  c0.12-0.258,0.231-0.519,0.333-0.785c0.074-0.191,0.147-0.383,0.211-0.577c0.057-0.17,0.108-0.342,0.157-0.516  c0.061-0.212,0.115-0.426,0.165-0.641c0.032-0.14,0.069-0.279,0.097-0.421c0.067-0.337,0.116-0.678,0.156-1.019  c0.013-0.112,0.024-0.223,0.034-0.336C44.976,32.77,45,32.386,45,32s-0.024-0.77-0.058-1.152c-0.01-0.112-0.021-0.224-0.034-0.336  c-0.04-0.342-0.089-0.682-0.156-1.019c-0.028-0.142-0.065-0.281-0.097-0.421c-0.05-0.215-0.104-0.428-0.165-0.641  c-0.05-0.173-0.101-0.345-0.157-0.516c-0.065-0.194-0.138-0.386-0.211-0.577c-0.103-0.266-0.214-0.528-0.333-0.785  c-0.071-0.153-0.143-0.305-0.22-0.455c-0.087-0.17-0.176-0.339-0.27-0.504c-0.018-0.031-0.033-0.063-0.05-0.094  c-0.009-0.015-0.022-0.027-0.032-0.042C40.957,21.602,36.781,19,32,19s-8.957,2.602-11.215,6.457  c-0.01,0.015-0.023,0.026-0.032,0.042c-0.018,0.031-0.033,0.063-0.05,0.094c-0.094,0.166-0.183,0.334-0.27,0.504  c-0.077,0.15-0.149,0.302-0.22,0.455c-0.12,0.258-0.231,0.519-0.333,0.785c-0.074,0.191-0.147,0.383-0.211,0.577  c-0.057,0.17-0.108,0.342-0.157,0.516c-0.061,0.212-0.115,0.426-0.165,0.641c-0.032,0.14-0.069,0.279-0.097,0.421  c-0.067,0.337-0.116,0.678-0.156,1.019c-0.013,0.112-0.024,0.223-0.034,0.336C19.024,31.23,19,31.614,19,32s0.024,0.77,0.058,1.152  c0.01,0.112,0.021,0.224,0.034,0.336c0.04,0.342,0.089,0.682,0.156,1.019c0.028,0.142,0.065,0.281,0.097,0.421  c0.05,0.215,0.104,0.428,0.165,0.641c0.05,0.173,0.101,0.345,0.157,0.516c0.065,0.194,0.138,0.386,0.211,0.577  c0.103,0.266,0.214,0.528,0.333,0.785c0.071,0.153,0.143,0.305,0.22,0.455c0.087,0.17,0.176,0.339,0.27,0.504  c0.018,0.031,0.033,0.063,0.05,0.094c0.009,0.015,0.022,0.027,0.032,0.042C23.043,42.398,27.219,45,32,45s8.957-2.602,11.215-6.457  C43.225,38.528,43.238,38.516,43.247,38.501z M42.886,33.497c-0.045,0.326-0.101,0.651-0.176,0.973  c-0.02,0.087-0.045,0.173-0.067,0.259c-0.084,0.325-0.181,0.646-0.294,0.962c-0.026,0.072-0.052,0.145-0.079,0.216  c-0.132,0.344-0.28,0.682-0.446,1.013c-0.013,0.026-0.025,0.053-0.038,0.08h-4.216c0.225-1.237,0.363-2.581,0.409-4h4.962  c-0.007,0.078-0.005,0.157-0.014,0.235C42.916,33.323,42.898,33.409,42.886,33.497z M32,43c-1.075,0-2.22-1.527-3.009-4h6.019  C34.22,41.473,33.075,43,32,43z M28.481,37c-0.244-1.209-0.408-2.553-0.46-4h7.958c-0.052,1.447-0.217,2.791-0.46,4H28.481z   M22.176,36.92c-0.166-0.331-0.314-0.669-0.446-1.013c-0.027-0.072-0.053-0.144-0.079-0.216c-0.113-0.316-0.21-0.637-0.294-0.962  c-0.022-0.086-0.047-0.172-0.067-0.259c-0.075-0.321-0.13-0.646-0.176-0.973c-0.012-0.088-0.03-0.174-0.04-0.263  c-0.009-0.078-0.007-0.157-0.014-0.235h4.962c0.046,1.419,0.184,2.763,0.409,4h-4.216C22.201,36.974,22.189,36.947,22.176,36.92z   M21.114,30.503c0.045-0.326,0.101-0.651,0.176-0.973c0.02-0.087,0.045-0.173,0.067-0.259c0.084-0.325,0.181-0.646,0.294-0.962  c0.026-0.072,0.052-0.145,0.079-0.216c0.132-0.344,0.28-0.682,0.446-1.013c0.013-0.026,0.025-0.053,0.038-0.08h4.216  c-0.225,1.237-0.363,2.581-0.409,4H21.06c0.007-0.078,0.005-0.157,0.014-0.235C21.084,30.677,21.102,30.591,21.114,30.503z M32,21  c1.075,0,2.22,1.527,3.009,4h-6.019C29.78,22.527,30.925,21,32,21z M35.519,27c0.244,1.209,0.408,2.553,0.46,4h-7.958  c0.052-1.447,0.217-2.791,0.46-4H35.519z M41.824,27.08c0.166,0.331,0.314,0.669,0.446,1.013c0.027,0.072,0.053,0.144,0.079,0.216  c0.113,0.316,0.21,0.637,0.294,0.962c0.022,0.086,0.047,0.172,0.067,0.259c0.075,0.321,0.13,0.646,0.176,0.973  c0.012,0.088,0.03,0.174,0.04,0.263c0.009,0.078,0.007,0.157,0.014,0.235h-4.962c-0.046-1.419-0.184-2.763-0.409-4h4.216  C41.799,27.026,41.811,27.053,41.824,27.08z M40.479,25h-3.373c-0.368-1.295-0.837-2.422-1.391-3.341  C37.588,22.335,39.232,23.493,40.479,25z M28.286,21.659c-0.553,0.919-1.023,2.046-1.391,3.341h-3.373  C24.768,23.493,26.412,22.335,28.286,21.659z M23.521,39h3.373c0.368,1.295,0.837,2.422,1.391,3.341  C26.412,41.665,24.768,40.507,23.521,39z M35.714,42.341c0.553-0.919,1.023-2.046,1.391-3.341h3.373  C39.232,40.507,37.588,41.665,35.714,42.341z"/><path d="M61,2H50c-0.553,0-1,0.447-1,1v2v1h-2c-0.217,0-0.427,0.07-0.6,0.2l-4,3C42.148,9.389,42,9.686,42,10v2  c-0.553,0-1,0.447-1,1v4c0,0.553,0.447,1,1,1h1c0,1.654,1.346,3,3,3s3-1.346,3-3h4c0,1.654,1.346,3,3,3s3-1.346,3-3h2  c0.553,0,1-0.447,1-1v-4V3C62,2.447,61.553,2,61,2z M51,4h9v8h-9V7V5V4z M44,10.5L47.333,8H49v4h-5V10.5z M46,19  c-0.552,0-1-0.448-1-1c0-0.221,0.086-0.414,0.207-0.579c0.383-0.51,1.203-0.51,1.586,0C46.914,17.586,47,17.779,47,18  C47,18.552,46.552,19,46,19z M56,19c-0.552,0-1-0.448-1-1c0-0.221,0.086-0.414,0.207-0.579c0.383-0.51,1.203-0.51,1.586,0  C56.914,17.586,57,17.779,57,18C57,18.552,56.552,19,56,19z M60,16h-1.774c-0.007-0.008-0.016-0.013-0.023-0.021  c-0.122-0.133-0.256-0.253-0.4-0.362c-0.019-0.015-0.036-0.032-0.056-0.046c-0.155-0.112-0.32-0.208-0.495-0.289  c-0.012-0.006-0.023-0.014-0.035-0.019c-0.177-0.079-0.362-0.14-0.555-0.184c-0.012-0.003-0.023-0.008-0.035-0.011  C56.423,15.025,56.215,15,56,15s-0.423,0.025-0.625,0.068c-0.012,0.003-0.023,0.008-0.035,0.011  c-0.193,0.044-0.378,0.105-0.555,0.184c-0.013,0.006-0.024,0.014-0.036,0.02c-0.175,0.081-0.34,0.177-0.495,0.289  c-0.02,0.014-0.036,0.031-0.056,0.046c-0.144,0.109-0.278,0.229-0.4,0.362c-0.007,0.008-0.016,0.013-0.023,0.021h-5.549  c-0.007-0.008-0.016-0.013-0.023-0.021c-0.122-0.133-0.256-0.253-0.4-0.362c-0.019-0.015-0.036-0.032-0.056-0.046  c-0.155-0.112-0.32-0.208-0.495-0.289c-0.012-0.006-0.023-0.014-0.035-0.019c-0.177-0.079-0.362-0.14-0.555-0.184  c-0.012-0.003-0.023-0.008-0.035-0.011C46.423,15.025,46.215,15,46,15s-0.423,0.025-0.625,0.068  c-0.012,0.003-0.023,0.008-0.035,0.011c-0.193,0.044-0.378,0.105-0.555,0.184c-0.013,0.006-0.024,0.014-0.036,0.02  c-0.175,0.081-0.34,0.177-0.495,0.289c-0.02,0.014-0.036,0.031-0.056,0.046c-0.144,0.109-0.278,0.229-0.4,0.362  c-0.007,0.008-0.016,0.013-0.023,0.021H43v-2h17V16z"/><path d="M5.535,9.149C4.818,8.793,3.96,8.894,3.349,9.411s-0.855,1.348-0.62,2.113l1.246,4.062C4.234,16.432,5.003,17,5.887,17H9  c0.12,0,0.239-0.021,0.352-0.063l6.475-2.429l-0.82,7.382c-0.04,0.364,0.122,0.721,0.422,0.931C15.599,22.939,15.799,23,16,23  c0.152,0,0.306-0.035,0.447-0.105l4-2c0.237-0.119,0.418-0.327,0.501-0.578l2.869-8.607l8.001-4  c0.652-0.326,1.075-0.982,1.104-1.711c0.028-0.73-0.344-1.417-0.97-1.793l-3.438-2.062c-0.287-0.172-0.64-0.189-0.942-0.046  l-7.528,3.566l-7.626-3.504c-0.202-0.093-0.429-0.117-0.646-0.065l-4,0.934C7.395,3.114,7.102,3.413,7.021,3.793  s0.066,0.772,0.377,1.006l5.585,4.208l-3.972,1.881L5.535,9.149z M11.894,4.118l5.624,2.584l-2.738,1.153l-4.47-3.367L11.894,4.118z   M27.944,4.133l2.979,1.787l0.515-0.857L30.924,5.92l-8.371,4.186c-0.237,0.119-0.418,0.327-0.501,0.578l-2.869,8.607l-1.985,0.992  l0.797-7.173c0.038-0.346-0.105-0.686-0.38-0.899C17.436,12.072,17.219,12,17,12c-0.118,0-0.237,0.021-0.352,0.063L8.818,15H5.887  l-1.246-4.062l3.912,1.956c0.275,0.138,0.6,0.142,0.875,0.009L27.944,4.133z"/><path d="M61,43H43c-0.553,0-1,0.447-1,1v4c0,0.553,0.447,1,1,1h1v12c0,0.553,0.447,1,1,1h14c0.553,0,1-0.447,1-1V49h1  c0.553,0,1-0.447,1-1v-4C62,43.447,61.553,43,61,43z M58,60H46V49h12V60z M60,47h-1H45h-1v-2h16V47z"/><rect x="49" y="51" width="6" height="2"/><rect x="31" y="57" width="2" height="2"/><rect x="35" y="57" width="2" height="2"/><rect x="39" y="56" width="2" height="2"/><rect x="56" y="39" width="2" height="2"/><rect x="57" y="35" width="2" height="2"/><rect x="57" y="31" width="2" height="2"/><rect x="57" y="27" width="2" height="2"/><rect x="56" y="23" width="2" height="2"/><rect x="40" y="6" width="2" height="2"/><rect x="36" y="5" width="2" height="2"/><rect x="8" y="19" width="2" height="2"/><rect x="6" y="23" width="2" height="2"/><rect x="5" y="27" width="2" height="2"/><rect x="5" y="31" width="2" height="2"/><rect x="5" y="35" width="2" height="2"/><path d="M25.369,59.45l1.607-7.233c0.065-0.296-0.007-0.605-0.196-0.843C26.59,51.138,26.304,51,26,51H9v-2.382l7.447-3.724  C16.786,44.725,17,44.379,17,44s-0.214-0.725-0.553-0.895l-8-4c-0.311-0.154-0.678-0.139-0.973,0.044S7,39.653,7,40v8v3H4  c-0.304,0-0.59,0.138-0.78,0.374c-0.189,0.237-0.262,0.547-0.196,0.843l1.607,7.233C4.245,59.085,4,58.572,4,58H2  c0,2.206,1.794,4,4,4c1.201,0,2.266-0.542,3-1.382C9.734,61.458,10.799,62,12,62s2.266-0.542,3-1.382C15.734,61.458,16.799,62,18,62  s2.266-0.542,3-1.382C21.734,61.458,22.799,62,24,62c2.206,0,4-1.794,4-4h-2C26,58.572,25.755,59.085,25.369,59.45z M9,46.382  v-4.764L13.764,44L9,46.382z M22,58h-2c0,1.103-0.897,2-2,2s-2-0.897-2-2h-2c0,1.103-0.897,2-2,2s-2-0.897-2-2H8  c0,0.83-0.509,1.544-1.232,1.845L5.247,53h19.506l-1.521,6.845C22.509,59.544,22,58.83,22,58z"/></svg>