<svg xmlns="http://www.w3.org/2000/svg" xmlns:xlink="http://www.w3.org/1999/xlink" width="70px" height="90px" version="1.1" x="0px" y="0px" viewBox="0 0 69 86.25" style="enable-background:new 0 0 69 69;" xml:space="preserve"><g><path d="M44.22862,6.87152C35.12859,6.88153,27.71861,14.32147,27.7086,23.4516c0,9.1377,7.30249,16.48926,16.40998,16.51001   h0.03003c9.09998-0.01001,16.51001-7.45007,16.52002-16.58008C60.68901,14.41083,53.51842,6.89252,44.22862,6.87152z    M29.2086,23.4516c0.01001-6.25,3.83002-11.64014,9.26001-13.92004c1.65997,1.58997,3.02997,3.46997,4.03998,5.55994   c-2.19-1.22998-4.62-2.12988-5.59998-1.1499c-1.66577,1.64355,2.32275,7.90271,3.88,9.45996   c1.10083,1.10083,2.5871,1.45728,3.64996,1.28003c-0.27997,4.97998-2.42999,9.45996-5.72998,12.76001   C33.30956,35.34979,29.2086,30.00226,29.2086,23.4516z M45.96861,23.14154c0,0.01001-0.01001,0.01001-0.01001,0.01001   c-1.28381,1.15491-3.26392,1.03589-4.62-0.30005c-1.39111-1.39111-4.99219-7.2478-3.88-8.35999   c0.14001-0.14001,0.35999-0.19995,0.64001-0.19995c1.7962,0,5.48468,2.24182,7.03998,3.46997   c2.33643,1.81775,2.06335,4.55273,0.84003,5.37c-0.01001-0.01001-0.02002-0.01001-0.02002-0.01001   S45.96861,23.13153,45.96861,23.14154z M44.2086,38.46161c0,0-0.02997,0-0.09003,0c-1.31,0-2.59998-0.17004-3.82996-0.5   c3.39996-3.64014,5.52997-8.48999,5.65997-13.83008c0.04999-0.02002,0.09003-0.05005,0.13-0.07996   c0.44,0.18005,0.88,0.23999,1.29999,0.18005c0.48004-0.07007,0.89001-0.29004,1.29004-0.5   c0.88043-0.45959,1.54376-0.68994,2.17999,0.1499c0.31,0.41003,0.45001,0.97998,0.37,1.42993   c-0.14001,0.77002-0.72003,1.45007-1.72998,2.04004c-0.65515,0.40674-1.85193,0.88232-2.71002,1.6001   c-0.81,0.66992-1.54999,1.85986-1.20001,3.15991c0.59479,2.16125,3.56824,3.02893,5.60999,1.07007   c0.65002-0.63,1.15002-1.46997,1.57001-2.65002c0.07001-0.20007-0.03998-0.42004-0.23999-0.48999   c-0.20001-0.07996-0.42999,0.02991-0.5,0.22998c-0.37,1.05994-0.81,1.79993-1.37,2.34998   c-1.633,1.56104-3.88281,0.84985-4.32001-0.71997c-0.25-0.93994,0.33002-1.83008,0.95001-2.34998   c0.72083-0.61584,1.62122-0.94568,2.60999-1.52002c1.21002-0.72009,1.91003-1.57996,2.10004-2.56995   c0.12-0.67004-0.08002-1.46008-0.52002-2.05005c-0.84479-1.1416-1.91882-1.02856-3.16003-0.37   c-0.35999,0.19006-0.69,0.35999-1.03998,0.41003c-0.15997,0.02002-0.32001,0.02002-0.48999-0.02002   c0.60999-0.69995,0.90997-1.59009,0.90997-2.51001c0-2.13025-1.3197-3.27734-2.95996-4.43005   c-1.01001-2.82996-2.63-5.39001-4.67999-7.50989c1.32996-0.40015,2.72998-0.61011,4.17999-0.61011   c8.38416,0.021,14.96051,6.79358,14.94,15.01001C59.15862,31.66156,52.44859,38.42157,44.2086,38.46161z"/><path d="M44.24858,2.50153h-0.02997c-3.46002,0-6.72998,0.85999-9.60999,2.38h-0.01001h-0.00006   c-2.88764-1.51074-6.1554-2.38306-9.63062-2.38306c-11.57764,0-20.99658,9.45996-20.99658,21.08789   c0,11.62891,9.41895,21.08887,20.99658,21.08887c3.58307,0,6.94623-0.92432,9.89606-2.52612   c0.00153,0.00073,0.00305,0.00171,0.00458,0.00244c1.72003,0.87,3.55005,1.47998,5.45001,1.82007v3.17993   c-1.10999,0.38-1.90997,1.42993-1.90997,2.66992l-0.03003,13.87012c0,0.75,0.29004,1.45996,0.82001,1.98999   c0.53003,0.53003,1.23004,0.81995,1.98004,0.81995l5.95996-0.01001c1.54004,0,2.79004-1.25989,2.79004-2.80994l0.02997-13.88   c0-0.75-0.28998-1.45007-0.82001-1.9801c-0.32001-0.31995-0.70996-0.55994-1.13-0.68994v-3.16992   c9.66003-1.81006,17.01001-10.36011,17.02002-20.57007C65.04924,11.85614,55.76152,2.50153,44.24858,2.50153z M24.96794,43.17523   c-10.75049,0-19.49658-8.78711-19.49658-19.58887c0-10.80078,8.74609-19.58789,19.49658-19.58789   c2.88507,0,5.61877,0.64441,8.08338,1.78149c-0.00085,0.00049-0.00183,0.00098-0.00269,0.00159   c-5.82001,3.71997-9.69,10.25-9.70001,17.66003c-0.01379,7.71326,4.16876,14.33374,9.94,17.82996   c0.00024,0.00012,0.00055,0.00037,0.00079,0.00049C30.7642,42.48346,27.94835,43.17523,24.96794,43.17523z M48.4586,49.80157   l-0.02997,13.88c0,0.71997-0.58002,1.30994-1.30005,1.30994l-5.94995,0.01001c-0.35004,0-0.67004-0.14001-0.92004-0.38   c-0.23999-0.25-0.38-0.57996-0.38-0.91992l0.03003-13.88013c0-0.70129,0.57367-1.30994,1.29999-1.30994   c0.10266-0.00012,6.05267-0.01013,5.95001-0.01001C47.8925,48.50153,48.4586,49.10297,48.4586,49.80157z M41.81859,47.01154   v-2.79993c0.3587,0.03979,1.68738,0.12988,2.34003,0.12988c0.80902,0.01208,2.01282-0.09167,2.34998-0.13989v2.79993   L41.81859,47.01154z M44.16862,42.83148H44.1386c-10.63245,0-19.28998-8.61401-19.28998-19.38989   c0.01996-10.70996,8.70001-19.43005,19.37-19.44006h0.02997c10.6142,0,19.30078,8.61548,19.28003,19.39001   C63.5175,34.15717,54.76219,42.83148,44.16862,42.83148z"/></g></svg>