<svg height="18" viewBox="0 0 32 32" width="18" xmlns="http://www.w3.org/2000/svg"><g id="OUTLINE_copy_2"><g><g><path d="m16.192 11.565c-.223-1.703-1.458-3.071-2.754-3.111-1.297-.038-2.167 1.266-1.943 2.971.223 1.703 1.457 3.116 2.754 3.154s2.167-1.311 1.943-3.014z"/></g><g><path d="m15.329 18.087c-.381-.122-.802-.195-1.252-.199-1.934-.022-3.665 1.178-3.665 2.618 0 1.47 1.395 2.693 3.328 2.693 2.718 0 3.666-1.149 3.666-2.618 0-.176-.023-.35-.062-.52-.213-.831-.965-1.243-2.015-1.974z"/></g><g><path d="m16 0c-8.837 0-16 7.164-16 16s7.164 16 16 16c8.837 0 16-7.164 16-16s-7.163-16-16-16zm-2.249 24.005c-2.796 0-5.156-1.139-5.156-2.958 0-1.847 2.152-3.626 4.948-3.627.305 0 .586-.004.872-.004-.382-.372-.684-.821-.684-1.384 0-.334.104-.64.255-.924-.152.011-.307.047-.467.047-2.297 0-3.835-1.574-3.835-3.597 0-1.98 2.125-3.564 4.382-3.564h4.934l-.8.8h-1.8c1.059 0 1.603 1.544 1.603 2.81 0 1.065-.59 1.84-1.422 2.49-.813.636-.967.901-.967 1.441 0 .461.87 1.245 1.326 1.566 1.33.943 1.76 1.817 1.76 3.275 0 1.819-1.761 3.629-4.949 3.629zm11.654-8.011h-2.401v2.401h-1.601v-2.401h-2.401v-1.601h2.401v-2.401h1.601v2.401h2.401z" fill="#fff"/></g></g></g></svg>