<svg xmlns="http://www.w3.org/2000/svg" xmlns:xlink="http://www.w3.org/1999/xlink" width="70px" height="90px" version="1.1" x="0px" y="0px" viewBox="0 0 64 80" style="enable-background:new 0 0 64 64;" xml:space="preserve"><path d="M63,28.445L46.287,18H46v-3h2v-3.555L31.287,1h-2.574L12,11.445V15h2v14.32L1,37.445V41h2v22h32v-9h26V32h2V28.445z   M14,12.555L29.287,3h1.426L46,12.555V13H14V12.555z M16,15h28v3h-0.287L38,21.57V19H22v9.071L20.287,27h-2.574L16,28.071V15z   M28.287,32H29v0.445L28.287,32z M27,28.445v2.75l-3-1.875V21h12v1.82L27,28.445z M3,38.555L18.287,29h1.426L35,38.555V39H3V38.555z   M25,61H13V47h12V61z M27,61V45H11v16H5V41h28v20H27z M35,41h2v11h-2V41z M51,52H39V38h12V52z M59,52h-6V36H37v1.445l-6-3.75V32h28  V52z M61,30H29v-0.445L44.287,20h1.426L61,29.555V30z"/></svg>