<svg xmlns="http://www.w3.org/2000/svg" xmlns:xlink="http://www.w3.org/1999/xlink" width="70px" height="90px" version="1.1" x="0px" y="0px" viewBox="0 0 512 640" style="enable-background:new 0 0 512 512;" xml:space="preserve"><style type="text/css">
	.st0{fill:none;stroke:#000000;stroke-width:10;stroke-miterlimit:10;}
</style><g><rect x="169.5" y="186" class="st0" width="314" height="211"/><rect x="189.9" y="218.1" class="st0" width="53.8" height="32.5"/><rect x="263" y="218.1" class="st0" width="53.8" height="32.5"/><rect x="336.1" y="218.1" class="st0" width="53.8" height="32.5"/><rect x="409.2" y="218.1" class="st0" width="53.8" height="32.5"/><rect x="189.9" y="262.9" class="st0" width="53.8" height="32.5"/><rect x="263" y="262.9" class="st0" width="53.8" height="32.5"/><rect x="336.1" y="262.9" class="st0" width="53.8" height="32.5"/><rect x="409.2" y="262.9" class="st0" width="53.8" height="32.5"/><rect x="361" y="332" class="st0" width="57.7" height="65"/><rect x="234.2" y="331.2" class="st0" width="57.7" height="65"/><polygon class="st0" points="135,397 28,397 28,163 81.5,117 135,163  "/><circle class="st0" cx="81.5" cy="186" r="30"/><polyline class="st0" points="90.3,186 81.5,186 74.5,171  "/><line class="st0" x1="28" y1="321" x2="135" y2="321"/><line class="st0" x1="28" y1="343" x2="135" y2="343"/></g></svg>