<svg xmlns="http://www.w3.org/2000/svg" xmlns:xlink="http://www.w3.org/1999/xlink" width="70px" height="90px" version="1.1" x="0px" y="0px" viewBox="0 0 110 137.5" enable-background="new 0 0 110 110" xml:space="preserve"><path d="M78.69,100.87L68.66,69.16l-0.2-0.62l-0.27-0.85l-0.61-1.931l-3.23-10.21l-1.199-3.8l-0.261-0.82l-0.02-0.06l-0.93-2.95  l-1.21-3.81L59.52,40.3l-1.199-3.81C57.28,36.82,56.16,37,55,37s-2.28-0.18-3.32-0.51l-1.2,3.81l-2.42,7.62l-0.93,2.95l-0.02,0.06  l-0.26,0.82l-1.2,3.8l-3.23,10.21l-0.61,1.931l-0.27,0.85l-0.2,0.62l-10.03,31.71L30,105h50L78.69,100.87z M65.47,72.35l7.09,22.391  L57.82,80L65.47,72.35z M59.7,54.12l0.76,2.39l0.99,3.12L57.82,56L59.7,54.12z M51.98,48.79l1.23-3.88l1.24-3.92L55,39.26l0.55,1.73  l1.24,3.92l1.229,3.88l0.33,1.04l-3.16,3.16L55,53.18l-3.35-3.35L51.98,48.79z M49.54,56.51l0.76-2.39L52.18,56l-0.79,0.79  l-2.84,2.84L49.54,56.51z M45.94,67.88L55,58.82L64.18,68L55,77.18l-9.12-9.12L45.82,68L45.94,67.88z M44.53,72.35L52.18,80  L37.44,94.74L44.53,72.35z M36.82,101L55,82.82L73.18,101H36.82z"/><path d="M66.92,16.9l-2.86,2.86C65.28,21.53,66,23.68,66,26s-0.72,4.47-1.94,6.24l2.86,2.86C68.85,32.57,70,29.42,70,26  S68.85,19.43,66.92,16.9z M45.94,19.76l-2.86-2.86C41.15,19.43,40,22.58,40,26s1.15,6.57,3.08,9.1l2.86-2.86  C44.72,30.47,44,28.32,44,26S44.72,21.53,45.94,19.76z"/><path d="M40.23,14.05l-2.83-2.83c-3.37,4-5.4,9.16-5.4,14.78s2.03,10.78,5.4,14.78l2.83-2.83C37.59,34.69,36,30.53,36,26  S37.59,17.31,40.23,14.05z M72.6,11.22l-2.83,2.83C72.41,17.31,74,21.47,74,26s-1.59,8.69-4.23,11.95l2.83,2.83  c3.37-4,5.4-9.16,5.4-14.78S75.97,15.22,72.6,11.22z"/><path d="M34.56,8.38l-2.83-2.83C26.92,11.01,24,18.18,24,26s2.92,14.99,7.73,20.45l2.83-2.83C30.46,38.89,28,32.74,28,26  S30.46,13.11,34.56,8.38z M78.27,5.55L75.44,8.38C79.54,13.11,82,19.26,82,26s-2.46,12.89-6.56,17.62l2.829,2.83  C83.08,40.99,86,33.82,86,26S83.08,11.01,78.27,5.55z"/><g><path d="M62,26c0,0.17-0.01,0.35-0.03,0.52c0,0.04,0,0.08-0.01,0.12v0.05c0,0.01,0,0.01,0,0.02c0,0.06-0.01,0.12-0.02,0.18   c-0.021,0.18-0.051,0.35-0.08,0.52c-0.04,0.19-0.091,0.38-0.141,0.56c-0.02,0.07-0.04,0.13-0.06,0.2   c-0.061,0.19-0.13,0.38-0.21,0.56c-0.09,0.21-0.19,0.41-0.29,0.61c-0.101,0.17-0.2,0.35-0.311,0.51   c-0.01,0.01-0.02,0.03-0.029,0.04c-0.011,0.02-0.021,0.04-0.04,0.06c-0.11,0.17-0.24,0.34-0.38,0.5c-0.141,0.17-0.29,0.34-0.45,0.5   c-0.16,0.16-0.33,0.31-0.5,0.45c-0.16,0.14-0.33,0.27-0.5,0.38c-0.021,0.02-0.04,0.03-0.061,0.04c-0.01,0.01-0.029,0.02-0.04,0.03   c-0.159,0.11-0.34,0.21-0.51,0.31c-0.39,0.21-0.8,0.38-1.229,0.52c-0.03,0.01-0.061,0.02-0.091,0.03   c-0.17,0.05-0.35,0.09-0.529,0.13c-0.021,0-0.03,0.01-0.05,0.01c-0.03,0.01-0.051,0.02-0.08,0.02c-0.21,0.04-0.42,0.07-0.64,0.09   C55.49,32.99,55.24,33,55,33s-0.49-0.01-0.72-0.04c-0.22-0.02-0.43-0.05-0.64-0.09c-0.03,0-0.05-0.01-0.08-0.02   c-0.02,0-0.03-0.01-0.05-0.01c-0.18-0.04-0.36-0.08-0.53-0.13c-0.03-0.01-0.06-0.02-0.09-0.03c-0.43-0.14-0.84-0.31-1.23-0.52   c-0.17-0.1-0.35-0.2-0.51-0.31c-0.01-0.01-0.03-0.02-0.04-0.03c-0.02-0.01-0.04-0.02-0.06-0.04c-0.17-0.11-0.34-0.24-0.5-0.38   c-0.17-0.14-0.34-0.29-0.5-0.45c-0.16-0.16-0.31-0.33-0.45-0.5c-0.14-0.16-0.27-0.33-0.38-0.5c-0.02-0.02-0.03-0.04-0.04-0.06   c-0.01-0.01-0.02-0.03-0.03-0.04c-0.11-0.16-0.21-0.34-0.31-0.51c-0.1-0.2-0.2-0.4-0.29-0.61c-0.08-0.18-0.15-0.37-0.21-0.56   c-0.02-0.07-0.04-0.13-0.06-0.2c-0.05-0.18-0.1-0.37-0.14-0.56c-0.03-0.17-0.06-0.34-0.08-0.52c-0.01-0.06-0.02-0.12-0.02-0.18   c0-0.01,0-0.01,0-0.02v-0.05c-0.01-0.04-0.01-0.08-0.01-0.12C48.01,26.35,48,26.17,48,26s0.01-0.35,0.03-0.52   c0-0.04,0-0.08,0.01-0.12v-0.05c0-0.01,0-0.01,0-0.02c0-0.06,0.01-0.12,0.02-0.18c0.02-0.18,0.05-0.35,0.08-0.52   c0.03-0.16,0.07-0.31,0.12-0.47c0-0.02,0.01-0.05,0.02-0.07c0.01-0.07,0.03-0.15,0.06-0.22c0.06-0.19,0.13-0.38,0.21-0.56   c0.09-0.21,0.19-0.41,0.29-0.61c0.1-0.17,0.2-0.35,0.31-0.51c0.01-0.01,0.02-0.03,0.03-0.04c0.01-0.02,0.02-0.04,0.04-0.06   c0.11-0.17,0.24-0.34,0.38-0.5c0.14-0.17,0.29-0.34,0.45-0.5c0.16-0.16,0.33-0.31,0.5-0.45c0.16-0.14,0.33-0.27,0.5-0.38   c0.02-0.02,0.04-0.03,0.06-0.04c0.01-0.01,0.03-0.02,0.04-0.03c0.16-0.11,0.34-0.21,0.51-0.31c0.2-0.1,0.4-0.2,0.61-0.29   c0.18-0.08,0.37-0.15,0.56-0.21c0.07-0.03,0.15-0.05,0.22-0.06c0.02-0.01,0.05-0.02,0.07-0.02c0.16-0.05,0.31-0.09,0.47-0.12   c0.17-0.03,0.34-0.06,0.52-0.08c0.06-0.01,0.12-0.02,0.18-0.02c0.01,0,0.01,0,0.02,0h0.05c0.04-0.01,0.08-0.01,0.12-0.01   C54.65,19.01,54.83,19,55,19s0.35,0.01,0.52,0.03c0.04,0,0.08,0,0.12,0.01h0.05c0.01,0,0.01,0,0.02,0c0.06,0,0.12,0.01,0.18,0.02   c0.18,0.02,0.35,0.05,0.52,0.08c0.16,0.03,0.31,0.07,0.47,0.12c0.021,0,0.05,0.01,0.07,0.02c0.069,0.01,0.149,0.03,0.22,0.06   c0.19,0.06,0.38,0.13,0.561,0.21c0.21,0.09,0.409,0.19,0.609,0.29c0.17,0.1,0.351,0.2,0.51,0.31c0.011,0.01,0.03,0.02,0.04,0.03   c0.021,0.01,0.04,0.02,0.061,0.04c0.17,0.11,0.34,0.24,0.5,0.38c0.17,0.14,0.34,0.29,0.5,0.45c0.16,0.16,0.31,0.33,0.45,0.5   c0.14,0.16,0.27,0.33,0.38,0.5c0.02,0.02,0.029,0.04,0.04,0.06c0.01,0.01,0.02,0.03,0.029,0.04c0.11,0.16,0.21,0.34,0.311,0.51   c0.1,0.2,0.2,0.4,0.29,0.61c0.08,0.18,0.149,0.37,0.21,0.56c0.03,0.07,0.05,0.15,0.06,0.22c0.011,0.02,0.021,0.05,0.021,0.07   c0.05,0.16,0.09,0.31,0.12,0.47c0.029,0.17,0.06,0.34,0.08,0.52c0.01,0.06,0.02,0.12,0.02,0.18c0,0.01,0,0.01,0,0.02v0.05   c0.01,0.04,0.01,0.08,0.01,0.12C61.99,25.65,62,25.83,62,26z"/></g></svg>