<svg xmlns="http://www.w3.org/2000/svg" data-name="Layer 1" viewBox="0 0 100 125" width="150" height="150" fill="#f7322e" x="0px" y="0px"><defs><style>.cls-1{fill-rule:evenodd;}</style></defs><title>a</title><path class="cls-1" d="M21.977,65.772,10.583,72.6,22.428,92.362l11.4-6.831-.855-1.426a1.1,1.1,0,0,1-.057-.1L22.888,67.291c-.015-.022-.029-.044-.042-.067l-.02-.036-.849-1.416ZM25.7,67.037l11.292-6.581a.3.3,0,0,1,.115-.042.349.349,0,0,1,.138.013L58.406,66.6c.018,0,.064.021.137.047A2.736,2.736,0,0,1,60.1,68.091a3.233,3.233,0,0,1,.281.984c0,.033.006.065.01.1a3.186,3.186,0,0,1-.114,1.184c-.007.027-.026.081-.055.163a2.967,2.967,0,0,1-1.535,1.7,3.408,3.408,0,0,1-2.461.166l-9.277-2.829a1.27,1.27,0,1,0-.737,2.431l9.277,2.828a5.941,5.941,0,0,0,4.294-.3,5.5,5.5,0,0,0,2.84-3.146c.026-.073.057-.174.095-.3a5.632,5.632,0,0,0,.216-1.245l16.982-7.4a6.562,6.562,0,0,1,3.136-.725,1.513,1.513,0,0,1,.77.272,1.293,1.293,0,0,1,.4.528,3.086,3.086,0,0,1,.175,1.517c-.08.758-1.051,1.48-1.781,2.024l0,0,0,0-.162.121c-.028.021-.055.042-.081.065-4.1,3.076-7.3,5.519-10.041,7.607-7.472,5.7-11.55,8.811-14.459,10.1-3.133,1.385-5.066.481-9.324-1.508-.813-.381-.273-.131-.909-.427-1.106-.514-1.766-.83-2.335-1.1-2.383-1.141-3.494-1.674-4.744-1.65-1.14.022-2.01.474-3.641,1.32-.64.332-1.412.733-2.384,1.2L25.7,67.037ZM9.081,70.54l11.786-7.066a2.313,2.313,0,0,1,3.174.8l.35.584,11.326-6.6a2.8,2.8,0,0,1,1.092-.371,2.839,2.839,0,0,1,1.143.1l21.161,6.172c.121.035.213.064.276.086a5.266,5.266,0,0,1,3.008,2.77c.034.073.067.146.1.221L78.9,60.09a8.933,8.933,0,0,1,4.411-.924,4.03,4.03,0,0,1,2.045.77,3.8,3.8,0,0,1,1.2,1.544,5.614,5.614,0,0,1,.374,2.792c-.2,1.87-1.678,2.974-2.794,3.8l0,0-.162.121c-.026.02-.054.038-.081.056-3.709,2.781-7.112,5.377-10.021,7.6-7.633,5.823-11.8,9-14.977,10.406-4.18,1.849-6.443.792-11.426-1.537-.231-.108.362.169-.9-.417-.717-.333-1.6-.758-2.365-1.123-2.012-.964-2.95-1.413-3.609-1.4a7.3,7.3,0,0,0-2.515,1.041c-.611.318-1.34.7-2.235,1.131l.465.776V84.8a2.313,2.313,0,0,1-.981,2.792L23.539,94.66a2.31,2.31,0,0,1-3.174-.8L8.285,73.714a2.311,2.311,0,0,1,.8-3.174ZM68.58,53.4H54.462A2.472,2.472,0,0,0,52,55.862v2.462H71.043V55.862A2.474,2.474,0,0,0,68.58,53.4ZM64.117,15.78a3.672,3.672,0,1,0,1.075,2.6,3.66,3.66,0,0,0-1.075-2.6Zm-1.389,8.7a6.279,6.279,0,0,1-2.413,0L58.774,50.85h5.5L62.728,24.48Zm.737-12.015L64.7,11.231,61.521,8.052l-3.178,3.179,1.235,1.234a6.247,6.247,0,0,1,3.887,0ZM87.7,34.993a6.117,6.117,0,0,0,1.662-3.058H77.371A6.129,6.129,0,0,0,87.7,34.993Zm.854-5.608-5.187-8.9-5.188,8.9ZM44.01,34.993a6.108,6.108,0,0,0,1.661-3.058H33.681A6.129,6.129,0,0,0,44.01,34.993Zm.854-5.608-5.188-8.9-5.188,8.9Zm-13.645.557A1.268,1.268,0,0,0,31,30.66a8.679,8.679,0,0,0,17.357,0,1.275,1.275,0,0,0-.221-.718L41.892,19.235H55.36a6.224,6.224,0,0,0,2.471,4.149L56.226,50.85H54.462a5.022,5.022,0,0,0-5.012,5.012V59.6a1.275,1.275,0,0,0,1.275,1.275H72.318A1.275,1.275,0,0,0,73.593,59.6V55.862A5.024,5.024,0,0,0,68.58,50.85H66.817l-1.6-27.466a6.224,6.224,0,0,0,2.471-4.149H81.151L74.909,29.942a1.275,1.275,0,0,0-.221.718,8.679,8.679,0,0,0,17.357,0,1.275,1.275,0,0,0-.221-.718L84.511,17.4a1.274,1.274,0,0,0-1.144-.712H67.509a6.209,6.209,0,0,0-1.589-2.708c-.06-.06-.122-.119-.184-.176l1.625-1.625a1.274,1.274,0,0,0,.381-.909V11.2a1.273,1.273,0,0,0-.374-.9l-4.9-4.9a1.271,1.271,0,0,0-.909-.381h-.071a1.271,1.271,0,0,0-.9.374l-4.9,4.9a1.271,1.271,0,0,0-.381.909v.072a1.271,1.271,0,0,0,.374.9L57.307,13.8c-.063.057-.124.116-.184.176a6.221,6.221,0,0,0-1.59,2.708H39.676a1.278,1.278,0,0,0-1.144.711Z"/></svg>